<?xml version="1.0" standalone="no"?>
<!DOCTYPE svg PUBLIC "-//W3C//DTD SVG 1.1//EN" "http://www.w3.org/Graphics/SVG/1.1/DTD/svg11.dtd" >
<svg xmlns="http://www.w3.org/2000/svg">
<metadata></metadata>
<defs>
<font id="riddleregular" horiz-adv-x="634" >
<font-face units-per-em="2048" ascent="1239" descent="-809" />
<missing-glyph horiz-adv-x="268" />
<glyph horiz-adv-x="0" />
<glyph horiz-adv-x="682" />
<glyph horiz-adv-x="0" />
<glyph horiz-adv-x="0" />
<glyph unicode="&#xd;" horiz-adv-x="268" />
<glyph unicode=" "  horiz-adv-x="268" />
<glyph unicode="&#x09;" horiz-adv-x="268" />
<glyph unicode="&#xa0;" horiz-adv-x="268" />
<glyph unicode="!" horiz-adv-x="323" d="M86 1403h162q-37 -144 -55.5 -462t-4.5 -751h-75q9 422 -1.5 752.5t-25.5 460.5zM92 49q0 25 14 45.5t37 20.5q24 0 35.5 -20t11.5 -46q0 -22 -14.5 -43.5t-36.5 -21.5q-20 0 -33.5 21t-13.5 44z" />
<glyph unicode="&#x22;" horiz-adv-x="276" d="M33 1448l88 -2q-4 -14 -7.5 -60t-5.5 -85l-2 -39h-51q-8 153 -22 186zM156 1446l88 2q-6 -15 -12 -61.5t-8 -85.5l-3 -39h-51q-6 153 -14 184z" />
<glyph unicode="#" horiz-adv-x="899" d="M25 381l24 170q78 -6 184 -12q8 38 24.5 114t23.5 113q-147 -20 -191 -37l27 170q79 -6 190 -12q90 431 103 526h104q-53 -159 -127 -528q112 -3 201 2q29 159 86 524h114q-18 -86 -55 -260.5t-55 -259.5q125 13 178 39l-20 -139q-23 14 -177 10q-42 -196 -55 -258 q130 10 187 39l-23 -140q-27 16 -182 9q-76 -358 -94 -480h-105q48 140 117 475q-9 -1 -201 -18q-27 -141 -76 -457h-114q84 399 94 445q-137 -20 -182 -35zM322 537q111 -3 200 2q31 157 49 256q-40 -2 -113.5 -9.5t-90.5 -9.5q-4 -20 -20.5 -105t-24.5 -134z" />
<glyph unicode="$" horiz-adv-x="579" d="M68 254h84q-20 -30 16 -73t102 -54q2 139 -2 561q-183 238 -196 348q-12 111 40 181t140 81q-3 104 -6 127h94q-4 -38 -8 -131q130 -25 178 -166l-88 -2q7 44 -21 74.5t-71 42.5q-5 -189 -2 -504q158 -217 176 -370q12 -104 -23.5 -186.5t-126.5 -108.5q13 -98 15 -111 h-109q5 12 8 105q-79 11 -135.5 70t-64.5 116zM150 1049q9 -95 116 -228q-7 289 -12 424q-47 -13 -80 -61.5t-24 -134.5zM330 604q6 -248 20 -477q99 28 92.5 177.5t-102.5 285.5z" />
<glyph unicode="%" horiz-adv-x="962" d="M87.5 960q-9.5 71 4.5 152q27 121 108.5 210.5t186.5 88.5q49 -1 80.5 -26.5t42 -69t8 -95t-17.5 -108.5q-35 -125 -109.5 -222t-154.5 -97q-59 0 -99 48t-49.5 119zM162 -29q79 152 233.5 548.5t323.5 891.5h115q-513 -1274 -568 -1440h-104zM162 973q0 -63 22 -104 t58 -40q47 1 95.5 84.5t76.5 196.5q27 104 17.5 182.5t-56.5 79.5q-53 1 -107.5 -76t-85.5 -186q-20 -74 -20 -137zM482 140q-9 71 5 151q25 121 107 211.5t186 89.5q49 -1 81 -27t42.5 -69t8 -95t-18.5 -108q-35 -125 -109.5 -222.5t-154.5 -97.5q-58 0 -98 48t-49 119z M556 153q0 -63 22 -103.5t59 -39.5q45 1 93.5 85t76.5 196q27 103 17.5 182t-56.5 80q-53 0 -107.5 -77t-85.5 -185q-19 -75 -19 -138z" />
<glyph unicode="&#x26;" horiz-adv-x="772" d="M74 387q4 142 46 233t113 164q-66 165 -71 322q-5 137 57.5 216t126.5 81q17 1 34 -2t39.5 -11.5t40.5 -28t34.5 -47t25 -73t8.5 -102.5q0 -33 -5.5 -65t-11 -55t-22.5 -53.5t-24 -44.5t-33 -45t-32 -38t-38 -41.5t-36 -38.5q33 -72 74 -143.5t96 -159.5t65 -105 q17 80 25 158q6 50 8.5 90.5t1.5 55.5v16q58 3 104 -2q-3 -11 -13.5 -78.5t-29.5 -156.5t-47 -171q26 -48 56 -93t46 -66l17 -21l-80 -74q-29 72 -74 162q-88 -205 -237 -205q-52 0 -99.5 26.5t-86 77t-60 133t-18.5 185.5zM154 389q-4 -169 52 -265.5t130 -96.5 q66 0 116 50.5t85 168.5q-26 47 -123 203t-142 249q-113 -140 -118 -309zM238 1092q3 -114 55 -252q81 72 109 107q62 80 63 188q1 101 -30.5 161t-76.5 58q-51 0 -88 -64.5t-32 -197.5z" />
<glyph unicode="'" horiz-adv-x="149" d="M33 1448l88 -2q-4 -14 -7.5 -60t-5.5 -85l-2 -39h-51q-8 153 -22 186z" />
<glyph unicode="(" horiz-adv-x="239" d="M31 668q0 210 28 425.5t80 491.5q0 -2 58 -8.5t59 -1.5q-64 -152 -102.5 -424t-38.5 -471q0 -170 36.5 -470t88.5 -400l-131 -11q-6 58 -31.5 263.5t-36 339t-10.5 266.5z" />
<glyph unicode=")" horiz-adv-x="239" d="M-33 1575l119 10q52 -287 79.5 -498t27.5 -419q0 -133 -11 -270.5t-34.5 -330.5t-30.5 -268l-133 11q52 100 88.5 400t36.5 470q0 198 -39 470.5t-103 424.5z" />
<glyph unicode="*" horiz-adv-x="614" d="M94 1225l58 75q9 -24 135 -110q-7 155 -17 194l92 -16q-8 -84 -14 -182q104 71 121 104l43 -80q-27 -3 -139 -80q128 -88 168 -102l-70 -63q-55 47 -127 102q0 -131 21 -172l-89 8q11 17 11 168q-122 -87 -140 -110l-49 77q78 41 162 92q-124 88 -166 95z" />
<glyph unicode="+" horiz-adv-x="534" d="M61 547v92q83 -6 179 -6q4 150 -9 186h91q-13 -88 -19 -186q98 3 170 18v-98q-20 14 -174 14q-4 -149 18 -186h-102q18 24 25 186q-150 -7 -179 -20z" />
<glyph unicode="," horiz-adv-x="124" d="M2 57q0 26 16 45t35 19q20 0 33.5 -20.5t13.5 -43.5t-4.5 -49t-25 -54t-54.5 -28l-2 25q7 3 12 7t7.5 9.5t3.5 8.5t2 11t2 11q-11 -2 -25 14.5t-14 44.5z" />
<glyph unicode="-" horiz-adv-x="536" d="M72 547v92q248 -17 391 12v-98q-27 19 -189.5 16t-201.5 -22z" />
<glyph unicode="." horiz-adv-x="124" d="M2 55q0 23 14.5 44.5t36.5 21.5q20 0 33.5 -21.5t13.5 -44.5q0 -25 -15 -46t-38 -21t-34 20.5t-11 46.5z" />
<glyph unicode="/" horiz-adv-x="610" d="M12 -18q406 1255 449 1419h119q-60 -132 -168 -475t-285 -944h-115z" />
<glyph unicode="0" horiz-adv-x="579" d="M78 717q-3 182 24 341.5t85 261.5t135 99q54 -1 95 -60.5t64 -159.5t33 -221.5t8 -258.5q-3 -189 -28.5 -359t-72.5 -281.5t-104 -111.5q-63 0 -118.5 110t-87 282.5t-33.5 357.5zM162 715q-4 -170 15 -330.5t56 -261.5t82 -98q57 4 90 210t35 480q0 264 -32 453t-91 190 q-64 3 -106.5 -188.5t-48.5 -454.5z" />
<glyph unicode="1" horiz-adv-x="475" d="M47 1198q29 17 79.5 72t85.5 101l36 46h96q-14 -73 2 -692.5t31 -732.5l-115 6q12 169 12 676q0 32 1 148.5t0.5 188t-3.5 167.5t-10 155q-97 -136 -137 -200z" />
<glyph unicode="2" horiz-adv-x="561" d="M59 1090q3 13 5.5 47.5t5 67.5t14.5 72.5t32 69.5t61.5 51t98.5 23q102 3 161.5 -70t60.5 -223q1 -77 -28.5 -170t-74 -176.5t-95.5 -179.5t-94 -180t-68 -176t-19 -168q37 -4 160.5 -1t171.5 15l-9 -104q-57 4 -149 4t-155 -2l-64 -2q-25 88 -10 192.5t52.5 197.5 t88 197.5t96.5 192.5t77.5 182.5t31.5 167.5q0 54 -4.5 94.5t-17 81.5t-40 63t-67.5 23q-59 0 -92.5 -40t-41.5 -103q-11 -78 13 -145z" />
<glyph unicode="3" horiz-adv-x="555" d="M68 1141q3 13 4 44t2 59t11.5 62t29 58.5t58.5 42t97 18.5q93 3 144 -81t51 -273q0 -78 -13.5 -141.5t-30.5 -98t-40.5 -59.5t-34.5 -32t-20 -11q65 -14 103 -104.5t46 -210.5q5 -73 -0.5 -144t-22.5 -138.5t-55 -113t-92 -53.5q-59 -8 -105.5 6.5t-73 43t-40.5 65.5 t-12 74t16.5 69t40.5 49q-20 -139 47 -204q48 -46 108 -27q61 20 85 94l2 6q22 91 22 240q1 166 -45 244.5t-143 97.5q4 0 11 1.5t26.5 9.5t37.5 21t39.5 40t37 62.5t25.5 92t9 125.5q-2 157 -30.5 232.5t-90.5 76.5q-45 1 -76.5 -30.5t-42 -72.5t-9.5 -81t14 -57z" />
<glyph unicode="4" horiz-adv-x="606" d="M53 584q27 73 63.5 177t63.5 183.5t78.5 234l77.5 232.5l76 4q-6 -380 0 -764q37 2 88 11l-4 -78q-13 1 -41 2t-43 2q0 -82 0.5 -168.5t0.5 -160t2.5 -144.5t8.5 -121l-109 2q31 253 39 592q-64 1 -139 0t-119 -2zM147 645q82 -4 207 2q2 119 -1 264.5t-6.5 244 t-2.5 116.5q-21 -63 -76.5 -228t-84 -257t-36.5 -142z" />
<glyph unicode="5" horiz-adv-x="595" d="M74.5 142q-5.5 44 8.5 83.5t42 59.5q-4 -25 -5.5 -49.5t0 -55.5t11 -56.5t25.5 -47.5t46 -34t70 -11q53 2 90 61.5t53 144.5t15 183q-2 101 -27.5 169t-61 98t-84 40t-86.5 4.5t-79 -18.5q10 412 -12 690q215 -16 366 18q-2 -59 0 -102q-135 5 -294 -14q-1 -4 -3.5 -79 t-5.5 -201.5t-4 -242.5q15 7 40 11t60.5 1.5t72 -12.5t73 -37t64.5 -67.5t45.5 -108t17.5 -153.5q-1 -198 -69 -322t-171 -127q-61 -1 -106 25t-65.5 66t-26 84z" />
<glyph unicode="6" horiz-adv-x="585" d="M80 688q1 209 17.5 353t47.5 227t71.5 118.5t96.5 36.5q50 1 86.5 -25t55.5 -69t28 -85t11 -87q3 -90 5 -157.5t2.5 -96.5t2.5 -55h-84q18 83 23 170.5t-4 166t-42.5 128.5t-87.5 49q-159 -3 -159 -682q0 -147 9 -262.5t24 -188.5t36 -121t43 -67.5t47 -20.5 q37 0 73 50.5t57 128t29 159.5t-11.5 155t-65.5 105q-55 35 -113 27.5t-100 -47.5q-3 61 69.5 94.5t149.5 7.5q73 -39 105 -127.5t26 -199.5q-8 -155 -73 -281.5t-148 -126.5q-233 0 -227 723z" />
<glyph unicode="7" horiz-adv-x="585" d="M66 1413q337 -8 442 -2q-51 -194 -81.5 -403.5t-63 -525t-54.5 -486.5h-104q197 1157 207 1337q-2 0 -54.5 -5.5t-98.5 -11t-98.5 -14t-74.5 -16.5z" />
<glyph unicode="8" horiz-adv-x="542" d="M72 350q9 230 226 657q8 15 11 21q34 66 47 123t8 94.5t-20.5 64.5t-35 39t-38.5 13q-51 1 -84 -49t-36 -123q-3 -84 25.5 -144t64.5 -90q-2 0 -22.5 -43t-22.5 -43l-29 55q-29 55 -39.5 79.5t-24 78.5t-12.5 105q0 89 49 163.5t135 71.5q51 -2 95 -42.5t61.5 -109 t-12.5 -157.5q-25 -70 -96.5 -225t-120.5 -290t-58 -247q-14 -167 25 -247t100 -82q51 0 85.5 99t39.5 243q3 125 -21 233.5t-75 144.5l35 95q74 -78 106 -209t25 -269q-11 -167 -66.5 -282.5t-126.5 -112.5q-57 2 -98.5 34t-63.5 86.5t-31 120.5t-5 144z" />
<glyph unicode="9" horiz-adv-x="579" d="M63 1016q5 100 35.5 193t81 153.5t105.5 60.5q39 0 71.5 -18.5t55.5 -54t40 -77t27.5 -98.5t17.5 -107t10 -114t4 -107.5t1 -98.5q0 -778 -233 -785q-50 -1 -89 31.5t-60 82t-31.5 99t-10.5 92.5q0 111 25 168t75 107q-46 -151 -32.5 -266t52 -183t75.5 -67 q155 3 159 680q1 147 -7.5 263t-24 189t-37 121t-43.5 67t-47 19q-46 1 -89 -78.5t-63 -181.5t-4.5 -201.5t74.5 -134.5q40 -20 82.5 -15.5t80 31.5t48.5 64v-94q-2 -2 -5 -6t-13.5 -14.5t-22.5 -20t-31.5 -19t-40 -14t-48 -4t-56.5 9.5q-72 38 -104.5 127t-27.5 201z" />
<glyph unicode=":" horiz-adv-x="124" d="M2 55q0 23 14.5 44.5t36.5 21.5q20 0 33.5 -21.5t13.5 -44.5q0 -25 -15 -46t-38 -21t-34 20.5t-11 46.5zM2 399q0 24 14.5 45t36.5 21q20 0 33.5 -21t13.5 -45t-15 -44.5t-38 -20.5q-22 0 -33.5 20.5t-11.5 44.5z" />
<glyph unicode=";" horiz-adv-x="124" d="M2 57q0 26 16 45t35 19q20 0 33.5 -20.5t13.5 -43.5t-4.5 -49t-25 -54t-54.5 -28l-2 25q7 3 12 7t7.5 9.5t3.5 8.5t2 11t2 11q-11 -2 -25 14.5t-14 44.5zM2 399q0 24 14.5 45t36.5 21q20 0 33.5 -21t13.5 -45t-15 -44.5t-38 -20.5q-22 0 -33.5 20.5t-11.5 44.5z" />
<glyph unicode="&#x3c;" horiz-adv-x="534" d="M70 543v102q432 150 432 152v-101q-10 -3 -70.5 -21.5t-128.5 -40.5t-119 -40q171 -61 318 -102v-103z" />
<glyph unicode="=" horiz-adv-x="534" d="M68 457v100q40 -5 101 -12t179 -8.5t152 20.5v-100q-25 15 -210 15t-222 -15zM68 664v100q40 -5 101 -12t179 -8.5t152 20.5v-100q-25 15 -210 15t-222 -15z" />
<glyph unicode="&#x3e;" horiz-adv-x="534" d="M70 389v103q173 51 317 102q-68 24 -190.5 62.5t-126.5 39.5v101l432 -152v-102z" />
<glyph unicode="?" horiz-adv-x="499" d="M43.5 1001.5q-15.5 87.5 6 158t60 128.5t83.5 90.5t79 32.5q55 0 99.5 -58.5t66 -148t28.5 -196t-13 -201.5q-18 -95 -122 -295q-83 -158 -97 -201q-23 -71 24 -71h4h6t5.5 1t7 4t7 7.5t7 11.5t6 17t6.5 24t6 31q14 -3 19 -42t-14.5 -77.5t-65.5 -38.5q-53 0 -68 52 t11 114q17 44 44 94.5t46.5 87.5t44 116.5t43.5 188.5q19 127 2 241.5t-49.5 194t-55.5 79.5q-53 1 -92.5 -62.5t-53.5 -147.5t1.5 -171.5t62.5 -130.5h-69q-60 80 -75.5 167.5zM213 43q0 22 14.5 42.5t34.5 20.5q22 0 35.5 -20t13.5 -43q0 -25 -15 -46.5t-38 -21.5t-34 21 t-11 47z" />
<glyph unicode="@" horiz-adv-x="931" d="M51 369q0 198 124.5 320t324.5 122q102 0 189.5 -39t143 -117.5t56.5 -181.5q2 -127 -59.5 -215t-176.5 -88q-55 0 -87 37.5t-27 73.5q-43 -117 -127 -117q-87 0 -117 86q-30 83 9 187q40 108 127 151q42 20 89 20q52 0 76 -39l6 35h72q-13 -35 -40.5 -135.5 t-29.5 -114.5q-22 -135 51 -135q62 0 102.5 38t57 95t16.5 131q0 121 -93.5 202t-231.5 81q-163 0 -268 -116.5t-105 -280.5q0 -351 326 -351q44 0 114 14t111 44l27 -43q-40 -27 -121 -43.5t-135 -16.5q-191 0 -297.5 106t-106.5 290zM362 307q5 -82 57 -91q5 -1 11 -1 q60 0 93.5 71t56.5 206q12 81 -54 81q-73 0 -124 -94q-45 -84 -40 -172z" />
<glyph unicode="A" horiz-adv-x="675" d="M22 374q-5 51 -5 106q0 78 10 163q16 149 58.5 280.5t97.5 220.5t117 152.5t119 89.5q44 20 80 21q11 0 21 -2q40 -7 67 -43.5t37 -86.5t13 -86q2 -27 2 -50v-15l-35 2q0 16 -5 43t-16.5 62t-34.5 61.5t-54 30.5q-4 1 -9 1q-40 0 -91 -47q-57 -52 -111.5 -140.5 t-100.5 -217t-67 -262.5q-13 -97 -13 -187q0 -60 6 -116q14 -140 58 -235t100 -96h2q47 -1 83 43q37 44 60.5 125t36.5 183t17 226q13 481 14 498q2 34 2 58t-2 38q12 0 43 1t47 1q-18 -288 -25 -475q-5 -138 -5 -256q1 -43 1 -83q2 -152 19.5 -241.5t47.5 -148.5t79 -96 q-90 23 -139 117.5t-68 265.5q-35 -153 -89 -237q-52 -82 -129 -81h-5q-59 2 -108.5 54.5t-81.5 143.5t-44 215z" />
<glyph unicode="B" horiz-adv-x="602" d="M-31 707v6q0 19 16 35q19 18 50 26q-6 118 -14.5 305t-10.5 224v20q0 41 6 57q8 20 29 19h2q22 -1 59 -8q51 -8 102.5 -33t98.5 -66.5t76.5 -107t30.5 -144.5q0 -92 -51 -166t-115 -122q95 -33 162 -103q68 -69 95 -143q24 -64 23 -124v-17q-6 -105 -45 -189t-90 -131.5 t-109 -78t-102 -40.5q-33 -7 -54 -7q-7 0 -13 1q48 17 93.5 40.5t94.5 63t83 86.5q34 48 52 114q13 46 13 96q0 22 -2 45q-5 55 -16 96t-36.5 89.5t-76 91t-125.5 79.5q-68 -30 -86 -35q7 -158 18 -324t19 -261.5t10 -104.5l-101 -2q3 9 3 70q0 149 -19 608q-10 -1 -18 -1 q-49 0 -52 36zM10 711q3 -13 27 -13v39q-15 -5 -23 -11q-5 -5 -4 -11q-1 -2 0 -4zM96 1278q-2 -56 -2 -124q0 -157 10 -376q37 0 99 -12q77 47 118 125q40 76 40 155q0 83 -56 158q-55 74 -158 111q-32 11 -42 11q-3 0 -4 -1q-5 -4 -5 -47zM104 748l2 -29q38 14 48 20h-2 q-15 9 -48 9z" />
<glyph unicode="C" horiz-adv-x="651" d="M10 670q0 125 19 247t57.5 233t106.5 179.5t157 69.5h4q78 1 124 -37t70 -139q21 -89 21 -236v-39q-2 16 -7 42.5t-24.5 93.5t-42.5 118.5t-64 93.5q-40 41 -85 41h-2q-64 -1 -111 -65.5t-71 -169t-35 -214.5q-10 -100 -10 -203v-19q1 -103 16.5 -214.5t42 -210 t69 -162.5t91.5 -65h4q40 0 74 19q36 20 58.5 50.5t40.5 73.5t27.5 82t16 82t8 66.5t2.5 42.5q17 -14 23 -66q2 -20 2 -42q0 -36 -6 -78q-10 -68 -36 -133.5t-82 -109.5q-54 -42 -125 -42h-7q-82 1 -147 68.5t-102.5 175t-56.5 227t-20 240.5z" />
<glyph unicode="D" horiz-adv-x="696" d="M-12 4q82 170 128 412t60 450q-102 75 -135 191q-12 36 -12 74q0 21 4 43q10 60 36 110t78 82.5t117 32.5q84 0 151 -78.5t106 -202.5t64 -274.5t31 -297.5q4 -96 5 -180q0 -46 -1 -88q-4 -121 -18 -190q-12 -61 -41 -93.5t-66 -34.5q-6 0 -11 -1q-32 0 -67 12 q-41 14 -77.5 40t-64 56t-37.5 56q-34 -34 -113 -75t-137 -44zM98 115q3 -1 5 -1q25 0 75 38q56 42 70 81q41 -93 114 -167q60 -60 101 -60q18 0 32 12q31 26 37 103q6 52 6 123q0 35 -2 75q-4 120 -13 254t-33.5 269.5t-55 244.5t-79 178.5t-105.5 71.5h-6q-40 -1 -71 -25 q-33 -26 -47 -67.5t-20 -90.5q-2 -15 -2 -30q0 -32 9 -61q18 -73 69 -127q0 39 2 51l92 -4q-6 -15 -20 -115q27 -20 57 -37t46 -23l16 -7q-14 -4 -31 -4q-41 0 -94 26q-71 -487 -152 -708z" />
<glyph unicode="E" horiz-adv-x="628" d="M18 1098q9 68 39.5 121.5t72 84.5t90 52.5t95.5 29.5t85 12q30 3 51 3q6 0 11 -1l23 -1l2 -70q-29 5 -59 5q-34 0 -70 -6q-66 -12 -121 -43t-92.5 -85.5t-42.5 -124.5l-2 -30q0 -168 166 -269q51 -31 51.5 -40t-38.5 -46q-139 -154 -144 -391v-8q1 -67 17 -119 q18 -55 48 -87q30 -31 66 -47q34 -15 71 -15h5q54 2 95 23t61.5 53t33.5 70q12 35 12 68v5q-1 35 -3 63q29 -21 40 -62q6 -21 6 -44q1 -22 -5 -44q-10 -47 -38 -89t-80 -70q-51 -27 -113 -27h-5q-39 0 -77 8t-79 31t-71.5 58t-49.5 94q-18 56 -18 127v8q2 215 158 389 q5 6 13 14q14 15 16.5 20.5t-2.5 11t-24 16.5q-7 4 -11 6q-88 50 -142 148q-44 79 -44 159q0 20 3 39z" />
<glyph unicode="F" horiz-adv-x="505" d="M-187 1116q3 32 25 62q47 65 146 114q98 50 200 70q79 16 150 15q22 0 42 -1q90 -6 120 -41q20 -22 20 -105q0 -149 -63 -495q104 0 125 -12q4 -2 7.5 -11t4.5 -18l2 -8q-41 5 -93 5q-26 0 -55 -1q-128 -522 -153 -743h-96q72 221 170 737q-35 -4 -68.5 -9.5t-49.5 -8.5 l-16 -4l-10 67q30 2 154 6q23 125 36.5 226t17.5 187q1 20 1 37q0 58 -10 93q-12 41 -38 41h-5q-66 -8 -124.5 -21t-103 -28t-82.5 -32.5t-65 -36t-47 -37t-31.5 -36t-17 -33.5t-4.5 -29t8 -22q24 -35 61 -60t72.5 -35.5t67.5 -16.5t51 -6h20q-43 -10 -88.5 -10t-87 12 t-78.5 30t-63 44q-27 26 -41 54q-12 23 -12 49q0 6 1 11z" />
<glyph unicode="G" horiz-adv-x="708" d="M15 816q7 118 37 228t77 190t107.5 127.5t123.5 47.5q73 0 126.5 -29.5t81 -77t44 -105t18.5 -114.5v-47q0 -30 -1 -58q-2 -47 -7 -76l-4 -30q-29 -2 -47 -2q-26 0 -26 4q17 36 20 98q1 11 1 24q0 50 -10 104q-13 67 -37 127.5t-63.5 99.5t-86.5 39q-40 0 -82 -38.5 t-81 -114.5t-65.5 -212.5t-29.5 -310.5v-24q0 -203 64 -326q68 -129 163 -129q50 0 94.5 64.5t68 146.5t35.5 155q8 46 8 72q0 15 -3 23h61q-1 -40 -6.5 -180.5t-7.5 -192.5q88 51 192 51q-103 -25 -196 -108q0 -15 -1 -30.5t-1 -16.5q-28 -360 -71.5 -535.5t-107.5 -175.5 q-53 0 -89 76q-33 68 -33 171v23q6 145 70.5 279t168.5 219q1 18 3 74t3 75q-10 -34 -27 -72t-42 -75t-54.5 -65.5t-64.5 -40.5q-20 -6 -40 -6q-15 0 -31 4q-36 9 -75.5 51.5t-76.5 117.5q-58 117 -83 249q-19 104 -19 198q0 27 2 54zM350 -219q-4 -28 -4 -54q0 -49 12 -93 q19 -66 52 -78q2 -1 3 -1q16 0 33 55q20 60 39 205t31 351q-67 -84 -110.5 -186.5t-55.5 -198.5z" />
<glyph unicode="H" horiz-adv-x="548" d="M22 152q2 36 7 63q17 100 114 252q-13 575 -59 901h96q-3 -3 -3 -68q0 -32 1 -80q2 -144 3.5 -207.5t6.5 -236t7 -233.5q137 189 180 260q0 87 -1 201t-1 137q0 245 92 245q37 0 53.5 -70t16.5 -163q0 -150 -107 -332q4 -235 17 -484.5t24 -336.5h-96q2 276 2 737 q-25 -38 -86.5 -124t-91.5 -132q6 -169 6 -266q0 -241 -92 -246h-5q-35 0 -56 27q-22 28 -26 74q-2 32 -2 59v23zM76 121q0 -30 7 -61t17 -31q15 0 29 62t14 124q2 34 1.5 77.5t-1.5 96.5q-67 -132 -67 -251v-17zM426 901q45 95 51 191q1 41 1 74q0 147 -25 147 q-27 0 -27 -323v-89z" />
<glyph unicode="I" horiz-adv-x="548" d="M17 133q-5 22 -5 42q0 35 14 69q22 54 62 100t88 72l35 -66q-77 -20 -113 -80q-29 -47 -28 -96q0 -13 2 -27q10 -63 55 -98q35 -27 77 -30q6 0 12 -1q36 0 68 16q38 18 70 53.5t47 82.5q33 103 41 307q3 79 4 157q0 124 -8 244q-14 197 -51 346t-86 150h-5q-55 0 -91 -62 q-38 -66 -50 -168q-7 -59 -7 -124q0 -49 4 -102q10 -154 65 -287.5t133 -196.5l-53 -61q-71 83 -136 234t-75 302q-3 42 -3 83q-1 87 13 165q20 114 74 187q51 69 125 69h8q79 -3 132 -135t71 -319q11 -112 10 -229q0 -78 -4 -157q-6 -91 -9.5 -138.5t-16 -125t-31.5 -137.5 q-26 -80 -72.5 -128t-99.5 -58q-24 -5 -48 -5q-29 0 -57 7q-52 12 -94 45q-54 42 -67 100z" />
<glyph unicode="J" horiz-adv-x="524" d="M22 1228q34 156 133 179q15 3 31 3q9 0 19 -1q44 -5 79.5 -29t60.5 -66t44 -91t29 -116t17 -129.5t7 -142t-0.5 -142.5t-6 -142.5t-9.5 -131t-10 -118.5q90 49 190 49q-105 -26 -194 -108l-4 -49q-30 -362 -73 -535.5t-108 -173.5q-52 0 -89 76q-32 68 -32 171v23 q6 145 71 279t169 219q2 35 7.5 118t9 147.5t7.5 158.5q3 76 3 138v30q-1 74 -5 158t-16 144.5t-30.5 112t-47.5 77.5t-66 26h-3q-54 -1 -85.5 -65.5t-34.5 -160.5q-1 -17 -1 -34q0 -81 12 -166q15 -104 54 -194.5t90 -131.5l-54 -57q-103 105 -151 314q-27 117 -27 220 q0 74 14 141zM176 -219q-4 -28 -4 -54q0 -49 12 -93q19 -66 52 -78q2 -1 3 -1q16 0 33 55q20 60 39 205t31 351q-67 -84 -110.5 -186.5t-55.5 -198.5z" />
<glyph unicode="K" horiz-adv-x="620" d="M-20 633v6q0 21 17 37q20 18 54 26q-15 562 -31 664h115q-12 -167 -12 -645v-14q42 -6 72 -27q10 3 20 10q54 32 91 84.5t54.5 111t27.5 126.5q9 62 9 120v11v50q1 37 1 75q2 62 1 106h82q-13 -274 -30 -370q-30 -172 -122 -269q-38 -40 -89 -73q-6 -3 -15 -9 q47 -48 82 -143t55 -191t41 -186.5t52 -146.5q30 -54 72 -54h3q59 4 101.5 47.5t48.5 69.5l33 -10q-9 -9 -33.5 -38t-43 -47.5t-52.5 -34.5q-32 -15 -68 -15h-4q-94 0 -154 98q-25 39 -46 129.5t-34.5 181t-36.5 185t-51 139.5q-56 -22 -67 -25q-1 -63 -1 -120 q0 -410 32 -494h-99q6 34 6 166q0 152 -8 432q-9 -1 -17 -1q-52 0 -56 38zM44 624q4 0 9 1v43q-33 -12 -33 -28t24 -16zM123 645q33 14 45 21l-2 2q-13 10 -43 10v-33z" />
<glyph unicode="L" horiz-adv-x="546" d="M-74 -16q0 16 12 34q14 20 42 27q52 15 108 21q37 84 44 226q1 30 1 61q0 116 -20 251q-5 35 -18.5 103t-25 125.5t-20.5 131.5t-10 134v10q0 54 11 110q12 60 39 100q27 42 77 66q49 24 117 23h6q37 0 68 -13.5t51.5 -32.5t37.5 -51.5t26.5 -60t18 -70t12 -69.5 t8.5 -69.5l7 -59.5l-86 2q12 41 12 86q0 17 -2 35q-6 65 -24 120t-53 91.5t-78 36.5q-56 0 -94 -22.5t-56 -59.5q-18 -38 -25 -90q-4 -33 -4 -67q0 -19 1 -38q4 -53 13.5 -116.5t21 -114t23 -105t15.5 -82.5q22 -157 22 -282q0 -191 -52 -303q32 2 70 2q66 0 148 -6 q76 -5 117 -4q29 0 39 2l2 -60q-81 2 -211 16.5t-184 14.5q-31 -54 -67 -76t-64 -24q-8 -1 -15 -1q-24 0 -39 10q-22 14 -22 38zM-36 -4q-2 -3 -1 -6q-1 -4 5 -8q6 -3 15 -4q7 0 15 2q43 10 70 53q-39 -6 -80 -21q-19 -7 -24 -16z" />
<glyph unicode="M" horiz-adv-x="1122" d="M9 1054q0 73 13 155t56 146t108 68h11q55 1 98 -37q47 -42 69.5 -103.5t35.5 -124t16 -106.5l2 -44q6 77 16.5 136t30.5 110t53 79.5t78 30.5h3q34 0 58 -23q25 -24 39 -74.5t20.5 -110.5t8.5 -148q1 12 4 32t15.5 72t29 92.5t46 75.5t65.5 39q9 1 17 1q68 0 114 -56 q43 -53 43 -137q0 -16 -2 -33q-2 -26 -14.5 -141.5t-21.5 -216.5t-15 -218q-2 -34 -2 -68q0 -88 13 -178q18 -124 46 -197t51 -73l-113 -12q-8 0 -25 48q-18 48 -34 162q-13 91 -13 197q0 26 1 54q2 78 12.5 205t17.5 220q6 94 8 187q0 8 1 16q-1 81 -15 129q-16 52 -49 54 h-5q-48 0 -86 -82q-40 -86 -63.5 -231t-29.5 -331q0 -38 1 -62q0 -24 -1 -36v-11q-1 -29 3 -97q4 -84 6 -117t8.5 -130.5t9.5 -146.5h-72l4 961q-1 106 -8.5 173.5t-21 98.5t-26.5 41.5t-34 12.5h-4q-36 0 -63 -58q-29 -61 -48 -168.5t-33 -269.5q-15 -177 -15 -388 q0 -196 13 -421l-114 -4q30 245 39 595q2 90 2 170q0 231 -19 378q-21 135 -68 191q-39 47 -75 47q-7 1 -14 -1q-42 -12 -68 -55q-19 -33 -29 -84q-9 -48 -10 -95q0 -46 4 -96q3 -44 8 -71l4 -27l-80 2q-11 31 -11 104z" />
<glyph unicode="N" horiz-adv-x="759" d="M18 1045q0 29 2 69.5t7.5 75t16.5 70.5t26.5 61.5t39.5 43t54 19.5h9q57 0 99 -46q46 -50 65.5 -125t31 -150.5t11.5 -128.5l1 -53q6 34 14 89t13.5 93t14.5 86t20 80.5t26 62.5t36.5 46.5t47.5 19.5q6 1 12 0q66 0 104 -72q33 -63 34 -147q0 -22 -3 -45 q-3 -28 -11.5 -114.5t-14 -143.5t-13 -151.5t-12.5 -184.5q-1 -30 -1 -59q0 -92 14 -186q18 -124 45.5 -197.5t50.5 -73.5h-88q-8 0 -26 50t-34 165q-13 88 -13 189q0 31 1 63q2 79 12 209.5t16 229.5q6 100 8 198q0 9 1 17q0 87 -14 137q-15 56 -48 58h-4q-48 0 -83 -102 q-37 -106 -55.5 -261.5t-24.5 -350.5q-4 -66 -4 -150q0 -34 1 -70q2 -128 15 -366h-119q28 230 29 594v24q0 346 -27 521q-32 212 -107 212h-3q-43 -2 -81 -67q0 -1 -1 -2q-29 -52 -35 -140q-2 -31 -2 -59q0 -51 6 -91l10 -62h-65q-1 6 -1.5 15.5t-2 40t-1.5 59.5z" />
<glyph unicode="O" d="M14 418q-1 35 0 67q0 43 1 81q2 67 7 109l5 42q29 2 47 2q26 0 26 -4q-15 -41 -18 -125q-1 -17 -1 -35q0 -71 10 -149q12 -98 33.5 -188t60 -150t85.5 -60q32 0 63.5 23t62.5 78.5t52.5 137.5t31.5 211q6 76 6 162q0 60 -3 125q-8 169 -43 303t-87 206.5t-111 72.5 q-32 0 -63 -41t-51.5 -95.5t-35.5 -117.5q-16 -69 -18 -119q-1 -14 -1 -26q0 -32 4 -54q5 -31 28.5 -46.5t40 -22t57.5 -1t61.5 10.5t70.5 19q35 10 52 14q-93 -58 -163 -84q-59 -22 -96 -22h-13q-40 4 -63 32q-24 28 -30 64q-4 23 -4 52q0 16 2 33q4 49 11 86t18 76 q9 34 23 72.5t38 85t50 81.5q26 36 62 56q27 15 55 15q9 1 17 -1q36 -6 80.5 -53t88.5 -135q65 -130 95 -280q27 -134 27 -257q-1 -14 -1 -28q-4 -135 -30 -262t-68.5 -219t-96 -147.5t-106.5 -55.5q-73 0 -126.5 42t-81 109t-43.5 148t-18 162z" />
<glyph unicode="P" horiz-adv-x="542" d="M18 629q-1 28 -1 56q0 175 44 329q51 178 145 282t208 107h4q88 -1 160 -83q73 -84 102 -217q14 -66 14.5 -132.5t-14.5 -132.5q-8 -37 -20.5 -70.5t-29 -61t-32.5 -50.5t-36 -42.5t-35 -33.5t-35 -27.5t-30.5 -20t-26 -15t-17.5 -9.5l-19 59q31 13 54.5 25.5t55.5 37.5 t53.5 55t39.5 77.5t23 105.5q3 32 3 64q0 82 -19 160q-26 108 -77.5 173.5t-113.5 67.5h-6q-51 1 -95 -31q-46 -34 -76.5 -91.5t-55.5 -130.5t-37 -149q-12 -75 -22 -147q-9 -65 -8 -116v-10q1 -54 1 -83q19 -218 61 -371t76 -163q2 -1 4 -1q26 0 46 122q20 131 20 297v14 q0 121 -16 279q-18 166 -40 260h72q1 -112 15 -293t16 -242q2 -60 2 -113q0 -375 -93 -395q-5 -1 -10 -1q-15 0 -32 9q-76 42 -144 219t-78 433z" />
<glyph unicode="Q" horiz-adv-x="661" d="M8 461q-1 29 -1 53t1 42l2 36q33 4 49.5 4t16.5 -4q-13 -34 -14 -93q-1 -9 -1 -18q0 -51 7 -109q9 -67 29.5 -136t49 -125t69.5 -91.5t87 -35.5q53 0 98 63q-112 115 -202.5 292.5t-136.5 344t-48 289.5q1 27 0 63q-1 7 -1 15q0 29 5 63q6 43 13 86t26.5 83t45 70.5 t67 49t94.5 18.5q77 0 145 -82.5t111.5 -205.5t68.5 -255.5t27 -242.5v-26q0 -167 -35 -313q-38 -158 -104 -255q119 -119 266 -158q-155 0 -294 123q-63 -72 -134 -72q-73 0 -129.5 36.5t-88 94.5t-52.5 128t-28 140t-9 128zM104 973v-12q0 -102 30 -243 q33 -149 111.5 -326t184.5 -300q88 174 88 509q0 67 -4 140q-6 126 -31.5 239.5t-62 192t-81.5 124.5t-89 46q-137 0 -146 -358v-12z" />
<glyph unicode="R" horiz-adv-x="802" d="M16 631q10 -256 78 -432.5t144 -218.5q17 -9 32 -9q20 1 34 17q26 28 35.5 97.5t11.5 170.5q1 29 1 60q0 77 -4 165q-2 49 -10 156q31 15 63 35q30 -38 45.5 -124t19 -171t16.5 -173t38 -128q63 -96 154 -99h4q36 0 68 16q34 17 52.5 35t43 47.5t32.5 37.5l-49 16 q-3 -24 -38 -61t-95 -41h-3q-43 0 -69 51q-27 53 -41 138t-28 175t-44.5 174.5t-78.5 124.5q79 59 137 141t72 173q6 37 6 74q0 59 -15 115q-24 91 -88 153q-61 59 -143 59h-8q-114 -3 -202.5 -108t-133.5 -281q-38 -149 -38 -323q0 -30 1 -62zM117 578q-8 93 -7 175 q0 189 40 316q33 108 78 178q46 71 90 95q31 17 60 16q14 0 28 -3q44 -11 76 -55t52 -120q18 -69 17 -154v-18q-1 -91 -47 -167t-113 -126q-36 12 -59 12q-15 164 -17 287h-71q28 -115 43 -289q-39 -6 -64 -26t-22 -48q4 -39 46 -39q20 0 48 9q6 -82 6 -160q1 -193 -9 -309 q-9 -109 -33 -110q-2 0 -3 1q-35 10 -77.5 163t-61.5 372zM242 657q-1 2 -1 4q0 7 12 15q14 10 38 16l2 -35q-24 -8 -36.5 -8t-14.5 8zM334 698q6 0 17 -1t16 -1q-5 -3 -16 -10t-15 -10z" />
<glyph unicode="S" horiz-adv-x="673" d="M-172 -51q71 24 175 188t187 377q96 249 148 506q-53 190 -53 278q0 70 24 108t56 38q35 0 60 -42q22 -37 22 -95q0 -9 -1 -19q-7 -112 -40 -260q8 -18 43 -96.5t50.5 -115.5t38.5 -100t37 -114q21 -84 33 -161q10 -68 11 -138q-1 -9 -1 -19q-2 -80 -20 -140.5 t-62.5 -106t-113.5 -60.5q-39 -9 -72 -9q-22 0 -41 4q-48 10 -82 35t-50.5 62t-18.5 75q0 5 -1 11q0 32 13 64q15 37 45 62l29 -23q-36 -31 -44 -76q-2 -14 -2 -26q0 -30 12 -56q18 -38 62 -58q27 -13 59 -12q20 0 42 5q59 13 93 55q35 40 43 106q5 40 5 84q0 27 -2 55 q-5 73 -28 169t-46 178t-54 184q-7 23 -11 35q-89 -340 -236 -649q-36 -74 -77 -136t-105 -142t-66 -83zM326 1292q0 -55 34 -155q18 93 21 153q1 15 1 27q0 44 -11 61q-6 10 -13 10q-8 0 -16 -16q-16 -28 -16 -80z" />
<glyph unicode="T" horiz-adv-x="442" d="M-184 1295q12 26 51 42q76 29 254 31h35q158 0 292 -12q149 -14 246 -29l-4 -63q-137 18 -237.5 29t-258.5 23q-86 7 -151 7q-55 -1 -95 -5q-88 -10 -89 -44q0 -26 33 -60t94 -65l-35 -41l1 -3q-13 3 -60 44q-81 73 -81 123q0 12 5 23zM205 -20q14 636 14 963 q0 249 -8 319h115q-31 -119 -31 -476t18 -806h-108z" />
<glyph unicode="U" horiz-adv-x="724" d="M4 1366h129q-31 -136 -33 -518q0 -21 -1 -43q0 -354 40 -612q12 -66 39 -110q28 -45 62 -61q31 -15 66 -15q2 1 6 1q38 2 73 20.5t63 51t41 72.5q-11 39 -14 84q-13 222 -13 494t5 400q2 54 2 102q0 67 -4 124h84q-14 -161 -15 -372q0 -285 27 -660q11 -150 40 -210 t73 -63h3q33 0 62 64l45 -23q-46 -71 -90 -100q-32 -21 -59 -21q-11 -1 -21 3q-35 12 -61.5 43.5t-46.5 80.5q-15 -33 -51 -63t-81 -51q-44 -22 -96 -26q-13 -1 -26 -1q-37 1 -71 11q-45 14 -81 58t-51 115q-25 133 -33 399q-7 250 -8 487v31q0 23 1 44q0 212 -5 264z" />
<glyph unicode="V" horiz-adv-x="432" d="M2 1366h107v-42q1 -194 25 -460q28 -294 56 -485l29 -191q3 25 58.5 311.5t100.5 554.5q38 224 38 298q0 15 -2 24h112q-48 -172 -125 -530t-129 -630l-53 -271q-73 214 -140 734t-77 687z" />
<glyph unicode="W" horiz-adv-x="792" d="M12 788q-1 23 -1 49q1 123 13 295q14 206 13 236h104q-50 -269 -50 -519q0 -27 1 -54q8 -407 36 -569q28 -159 109 -158h3q48 1 85 45.5t58 119.5q-26 89 -29 160v12q0 30 8 53q10 27 33 27q22 2 34.5 -20.5t12.5 -63.5q0 -100 -22 -186q61 -154 152 -154h3q18 1 31.5 16 t23 45.5t16 64.5t9.5 88q3 55 5 101q1 28 0 64v52q-1 70 -2 120.5t-3 128.5q-6 289 -41 635h68q-1 -4 -1 -11q0 -23 8 -79q10 -72 22 -221.5t12 -323.5q0 -37 1 -73q0 -36 -1 -72q-1 -72 -2 -139.5t-5.5 -128.5t-11 -114t-17.5 -96.5t-25 -74.5t-34.5 -49t-45.5 -19h-5 q-47 -1 -91 51q-46 54 -80 144q-32 -86 -81.5 -137t-101.5 -56h-8q-95 -1 -145 181q-52 190 -58 630zM383 391q0 -43 12 -98q8 41 8 98q0 51 -10 51t-10 -51z" />
<glyph unicode="X" horiz-adv-x="632" d="M-51 1368l129 -2q15 -36 90 -171.5t131 -252.5q65 145 126.5 263.5t96.5 170.5h76q-3 -6 -41.5 -73.5t-66.5 -118.5t-74 -140.5t-84 -173.5q41 -89 61 -139q70 -167 112 -316.5t63.5 -253t39.5 -149.5h-100q-10 140 -67 337t-130 366q-4 9 -11 27.5t-11 27.5l-2 -2 q-177 -415 -195 -760h-80q21 299 217 768q14 39 27 66q-86 185 -174.5 336t-132.5 190z" />
<glyph unicode="Y" horiz-adv-x="632" d="M24 671q-1 54 -1 105q0 102 4 190q6 133 7 258q1 18 1 34q0 95 -8 118h104q-34 -127 -34 -391.5t38 -527.5q14 -90 53 -135q38 -43 83 -43h3q47 2 92.5 33.5t73.5 84.5q0 924 -4 975l86 -6q-20 -55 -20 -1061q93 55 196 55q-107 -26 -196 -112q0 -11 -0.5 -21.5t-1 -16.5 t-0.5 -7q-28 -359 -71 -534t-107 -175q-52 0 -90 76q-32 66 -32 162q0 16 1 32q6 144 70 278.5t167 219.5v76q-25 -37 -67.5 -67t-92.5 -42q-29 -7 -58 -7q-20 0 -39 4q-47 8 -84.5 54t-51.5 126q-18 102 -21 265zM268 -209q-4 -28 -4 -54q0 -49 12 -93q19 -66 52 -78 q2 -1 3 -1q17 0 34 55q19 60 38 204.5t31 351.5q-67 -84 -110.5 -186.5t-55.5 -198.5z" />
<glyph unicode="Z" horiz-adv-x="618" d="M-12 1278q1 0 106 27.5t207 40.5t248 16q-252 -737 -270 -737q116 -127 167 -359q122 94 254 94q-132 -35 -241 -157q19 -109 19 -210q0 -69 -9 -134q-52 -365 -145 -365q-52 0 -88 76q-33 68 -33 171v23q6 125 54.5 243t129.5 204q-28 128 -74.5 237t-103.5 179 q2 -1 68.5 167.5t132.5 337.5l65 168q-328 -40 -418 -124q-5 6 -12.5 16.5t-24 32.5t-26.5 37q-7 11 -7 15q0 1 1 1zM272 -209q-4 -28 -3 -54q-1 -49 11 -93q18 -66 52 -78h3q11 0 25 24q16 28 30.5 100t21.5 171q3 36 3 76q0 85 -14 190q-105 -155 -129 -336z" />
<glyph unicode="[" horiz-adv-x="239" d="M4 -215l6 1798q203 -17 363 14v-75q-35 11 -111.5 10t-165.5 -8q-25 -239 -27 -857t21 -819q6 0 59 -0.5t79.5 0t69 3t71.5 8.5v-66z" />
<glyph unicode="\" horiz-adv-x="593" d="M12 1401h119q43 -178 449 -1419h-115q-177 601 -285 944t-168 475z" />
<glyph unicode="]" horiz-adv-x="239" d="M-131 -145q154 -10 285 0q24 266 20 881t-29 790q-221 9 -270 -13v68q203 -17 363 16q-4 -1702 6 -1806l-375 -4v68z" />
<glyph unicode="^" horiz-adv-x="475" d="M98 692q2 0 23 44t41 88l20 44h70l82 -176h-68q-4 13 -16.5 37.5t-22.5 42.5l-10 19q-41 -70 -49 -99h-70z" />
<glyph unicode="_" horiz-adv-x="776" d="M49 -12v92q508 -17 653 12v-98q-27 18 -320.5 15t-332.5 -21z" />
<glyph unicode="`" horiz-adv-x="475" d="M137 844l88 20q4 -14 24 -56.5t38 -77.5l18 -36h-57q-80 125 -111 150z" />
<glyph unicode="a" horiz-adv-x="483" d="M0 246q0 52 11 109t33.5 114t66 94t100.5 37q53 0 80 -45v41h74q0 -5 -7.5 -51.5t-9.5 -110.5q-10 -152 -10 -239q0 -150 33 -150q8 0 15.5 2.5t14.5 9.5t13 12.5t13.5 17.5t12 19t12 22t11 21.5t11 22.5t9.5 21q6 12 11.5 28t8.5 23.5t5 7.5q4 0 6 -14q1 -8 1 -12t-1 -7 q-9 -31 -14 -43q-75 -184 -142 -184q-28 0 -45.5 21t-22.5 45.5t-5 52.5q-48 -131 -127 -131q-45 0 -78 26.5t-49 69.5t-23.5 85.5t-7.5 84.5zM82 281q0 -244 86 -244q30 0 54.5 31.5t38 81t20.5 100t8 98.5v119v9q0 32 -14 56q-16 26 -52 27q-37 0 -65.5 -31t-44 -77 t-23.5 -90.5t-8 -79.5z" />
<glyph unicode="b" horiz-adv-x="419" d="M0 348q0 98 7.5 223.5t14.5 216.5q6 80 6 182v30q-1 121 -14 233l103 -4q-43 -492 -43 -918q0 -26 0.5 -41.5t2.5 -47.5t6.5 -53t13.5 -48t21 -43t32 -27.5t45 -11.5q62 0 94 51q-43 14 -86 57q-37 39 -61 95q-20 49 -21 97q1 7 1 14q4 55 42 81q20 14 42 14q23 0 49 -15 q51 -30 75 -91q23 -59 23 -119q0 -46 -13 -92l-4 -12q53 3 80 67q7 13 13 28t8.5 22.5t4.5 7.5q3 0 6 -12q2 -8 2 -13q0 -3 -1 -6q-7 -24 -15 -43q-37 -86 -107 -86h-5q-48 -104 -138 -104q-47 0 -82 27.5t-54 67t-30.5 93.5t-14.5 95.5t-3 84.5zM172 307q16 -70 61 -127 q34 -40 72 -55q12 37 12 86q-1 83 -46 145q-33 45 -63 45q-11 0 -22 -6q-20 -12 -20 -46q1 -18 6 -42z" />
<glyph unicode="c" horiz-adv-x="350" d="M-4 242q0 35 6.5 77.5t22.5 90.5t38.5 86.5t58.5 64t79 25.5q47 0 71.5 -49.5t24.5 -104.5q0 -23 -12 -29q-5 5 -11 39.5t-23 62t-52 27.5t-63 -35.5t-43 -86t-22.5 -96t-7.5 -76.5q0 -34 4.5 -65.5t16 -66.5t35.5 -56t59 -21q30 0 57 15.5t49 43t36 51t30 54.5 q4 8 7.5 18.5t6 17t5 12t4.5 8.5t4 3q1 0 3 -7q2 -10 2 -18q0 -4 -1 -8q-2 -7 -6 -21.5t-6 -21.5q-7 -20 -22.5 -47.5t-41.5 -63t-64 -59.5t-79 -24q-47 0 -81 25t-51.5 66t-25.5 83t-8 86z" />
<glyph unicode="d" horiz-adv-x="518" d="M0 260q0 51 12.5 107.5t36.5 109.5t65 87t91 34q72 0 100 -92q0 2 6 121q0 186 4 241q7 74 8 176v24q0 86 -6 151l80 -2q-41 -286 -41 -996q0 -133 45 -133q32 0 64.5 33.5t50.5 71.5q6 13 12.5 29t9.5 23t5 7q3 0 5 -14q1 -6 0 -10q0 -6 -1 -9q0 -2 -12 -43 q-5 -12 -16.5 -33t-30.5 -49.5t-45 -48.5t-50 -20q-70 0 -90 118q-17 -71 -51.5 -115t-87.5 -44q-42 0 -75.5 27.5t-51.5 71t-27.5 89t-9.5 88.5zM68 268q0 -46 11 -96t40 -92.5t71 -42.5q107 0 107 336q0 176 -74 176q-40 0 -71.5 -29.5t-49 -74t-26 -90.5t-8.5 -87z" />
<glyph unicode="e" horiz-adv-x="323" d="M0 262q0 46 11.5 105.5t33.5 121t62.5 103t91.5 41.5q33 0 48 -27.5t15 -64.5q0 -49 -15.5 -95.5t-47.5 -91t-59 -75.5t-70 -74q25 -172 102 -172q35 0 80.5 47.5t71.5 112.5q23 59 24 59q4 0 6 -14q1 -8 1 -12t-1 -7q-8 -29 -16 -47q-78 -192 -178 -192 q-44 0 -76.5 28.5t-50 74t-25.5 91t-8 88.5zM66 276q0 -33 2 -49q137 190 137 301q0 19 -7 38.5t-22 19.5q-32 0 -59 -68t-39 -137.5t-12 -104.5z" />
<glyph unicode="f" horiz-adv-x="346" d="M-2 215q-2 8 -2 16q0 22 14 41q14 25 48 25q13 0 28 -4v8q0 133 -2 424t-2 479h96q-31 -239 -31 -459q0 -264 -4 -477l4 -2q65 -42 109 -168q21 7 37 23q25 23 42.5 56t25 54t10.5 21q1 0 3 -7q2 -10 2 -18q0 -5 -1 -8q-19 -77 -68 -121q-13 -13 -43 -26q47 -156 52 -360 q1 -23 1 -46q0 -175 -37 -307q-41 -150 -118 -150q-36 0 -57 58.5t-25 156.5q-4 80 -4 154v33q1 89 5.5 191.5t4.5 127.5v160q-22 15 -35 25q-18 16 -32.5 42t-20.5 58zM35 223q0 -43 51 -84v121q-7 1 -12 1q-36 0 -39 -38zM137 -553q3 -147 40 -159q3 -1 5 -1l41 48 q39 88 47 251q3 52 3 101q0 206 -44 372q-13 -2 -27 -2q-30 0 -61 9q-4 -566 -4 -619zM143 104q36 -14 66 -14h10q-27 88 -59 123q-6 8 -17 16v-125z" />
<glyph unicode="g" horiz-adv-x="413" d="M0 258q0 33 5.5 72.5t19 84.5t33.5 81t52 60t70 24q65 0 103 -58l-2 49l73 -2l-6 -53q-7 -40 -14 -135q-3 -62 -6 -188.5t-4 -165.5q15 25 90 166q6 13 11.5 29t8 23t4.5 7q3 0 6 -14q1 -7 1 -12q0 -4 -1 -7q-9 -31 -14 -43q-36 -88 -108 -229l-5 -150q0 -3 -0.5 -59.5 t-2 -98t-5.5 -110.5t-13 -118.5t-22 -99t-35.5 -76t-50.5 -26.5q-26 0 -46.5 25t-31 61t-15.5 69t-5 56q0 129 43.5 242.5t126.5 255.5q2 23 4 72t4 73q-47 -79 -118 -79q-45 0 -76.5 28t-46.5 74t-21 87.5t-6 84.5zM66 260q0 -34 3.5 -66t12.5 -71.5t30.5 -63.5t53.5 -24 q108 0 108 321q0 11 1 37q1 17 1 29v10q-1 12 -3 32.5t-8 31t-15.5 22t-26 16.5t-39.5 5q-33 0 -58 -32.5t-37 -80.5t-17.5 -90.5t-5.5 -75.5zM131 -594q0 -28 13 -76.5t32 -48.5q48 0 72 221q8 69 8 256v60q-58 -119 -91.5 -218.5t-33.5 -193.5z" />
<glyph unicode="h" horiz-adv-x="460" d="M-31 1198h92l2 -944q10 52 23.5 99.5t33 95t46.5 76t57 28.5q41 0 60.5 -28.5t19.5 -71.5q0 -41 -13.5 -144.5t-13.5 -144.5q0 -133 64 -133q17 0 33 11t29 32.5t22 39t20 44.5t15 35q7 13 13 29t8.5 23t4.5 7q3 0 4 -14q1 -6 1 -10q0 -6 -1 -9q0 -2 -12 -43 q-3 -8 -13 -32.5t-16.5 -38.5t-17.5 -37t-21.5 -37t-23.5 -29t-28 -22t-31 -7q-64 0 -90.5 49t-26.5 119q0 47 19.5 163t19.5 163q0 49 -29 49q-24 0 -47 -32.5t-39 -76.5t-31.5 -105t-23.5 -102t-15 -85l3 -166l-72 -10q1 49 4 116.5t4.5 121t1.5 116.5q0 118 -3 311.5 t-3 237.5q0 142 -4 211q-4 89 -25 145z" />
<glyph unicode="i" horiz-adv-x="241" d="M-2 645q0 22 14.5 43t34.5 21q22 0 35.5 -20.5t13.5 -43.5q0 -25 -15 -46t-38 -21t-34 20.5t-11 46.5zM0 182q-1 12 -1 23q0 15 1 29v22q0 31 4 95.5t4 97.5q0 26 -4 38h82q-4 -8 -7 -25.5t-5 -43.5t-3 -52t-1 -58.5v-54v-48.5v-33q0 -5 -0.5 -23t0 -27.5t1.5 -26.5 t4.5 -27t9.5 -20.5t16 -15.5t24 -5q47 0 115 166q7 13 13 29t8.5 23t4.5 7q4 0 6 -14q1 -8 1 -12t-1 -7q-2 -7 -7 -21.5t-7 -21.5q-71 -196 -143 -196q-28 0 -49.5 12t-33 32.5t-19.5 46.5t-9.5 54.5t-3.5 56.5z" />
<glyph unicode="j" horiz-adv-x="145" d="M-131 -455q27 141 143 379q-10 522 -20 565h86q-11 -90 -12 -188v-22q0 -86 4 -168v-74q60 115 75 156q5 13 11 29t9 23t5 7q3 0 6 -14q1 -7 1 -12q0 -4 -1 -7q-3 -22 -12 -43q-2 -5 -94 -207v-401q0 -74 -4 -129.5t-15 -112.5t-35 -87q-21 -27 -53 -27h-6q-60 6 -85 103 q-13 52 -13 113q0 55 10 117zM-98 -594q2 -33 7 -56.5t12.5 -38t14.5 -21.5t13 -7q58 0 63 307q3 72 3 152q0 48 -1 98q-94 -236 -108 -356q-4 -34 -4 -61v-17zM-23 645q0 22 15 43t37 21q20 0 33.5 -20.5t13.5 -43.5q0 -25 -15 -46t-38 -21t-34.5 21t-11.5 46z" />
<glyph unicode="k" horiz-adv-x="409" d="M-14 -41q14 175 17 383q1 89 1 193q0 137 -2 303q-4 288 -4 368h82l-10 -100v-93q0 -233 -7 -673q37 35 73 78.5t80 101.5t65 84l49 -47q-25 -13 -111 -121t-110 -125q12 -41 34 -95t57.5 -110.5t63.5 -58.5q26 -1 48.5 11.5t41.5 39.5t29 45t25 50q7 13 13 29t8.5 23 t4.5 7q3 0 5 -14q1 -6 0 -10q0 -6 -1 -9q0 -2 -12 -43q-15 -40 -28.5 -69t-35 -59.5t-50 -47t-62.5 -16.5q-23 0 -44.5 12t-40 38t-32.5 48.5t-29 61t-21.5 57t-18.5 54.5l-3 9q-2 -25 -5 -61.5t-7 -131.5q-1 -32 -1 -55q0 -47 5 -63z" />
<glyph unicode="l" horiz-adv-x="278" d="M0 228q0 7 -1 14q-1 24 1 52q2 38 2 48q0 106 4 237t4 236q0 214 -8 389h107q-19 -184 -32 -446q-8 -155 -8 -301q0 -101 4 -199q9 -238 52 -242q20 -2 45.5 20.5t48.5 58t36 58.5t21 40q4 8 7.5 18.5t6 17t5 12t4.5 8.5t4 3q1 0 3 -7q2 -10 2 -18q0 -4 -1 -8 q-9 -31 -14 -43q-10 -24 -21 -47t-36 -66t-55 -69.5t-60 -26.5q-31 0 -54 15.5t-35.5 44t-20.5 59t-9.5 72.5t-1.5 70z" />
<glyph unicode="m" d="M-31 569h94l-2 -73q42 39 93 39q62 0 91 -47.5t29 -112.5q43 176 140 176q44 0 73 -35t29 -80q0 -52 -20.5 -176.5t-20.5 -175.5q0 -66 31 -66q22 0 52 37.5t48.5 73t28.5 61.5q21 62 24 62t6 -14q2 -8 2 -13q0 -4 -1 -6q-2 -7 -7.5 -21.5t-7.5 -21.5q0 -1 -7 -20.5 t-13 -34t-17 -38.5t-24 -41.5t-28.5 -35t-35.5 -26.5t-41 -9q-25 0 -40.5 9t-21.5 28.5t-7.5 35t-1.5 44.5q0 51 17.5 175t17.5 175q0 66 -37 66q-38 0 -65.5 -48t-39.5 -116.5t-17 -118t-5 -76.5v-32q0 -60 6 -88h-80q2 30 5 54.5t4 42t1 54.5q0 6 0.5 29t0 39.5t-1 43.5 t-2.5 47t-5 44.5t-9 42t-14 32.5t-19.5 23t-25.5 8q-54 0 -84 -51l-4 -457l-67 -6q8 196 8 318q0 217 -29 280z" />
<glyph unicode="n" horiz-adv-x="462" d="M-27 -33q27 106 27 277q0 12 1 70q1 38 1 68v26q0 36 -3.5 83.5t-10.5 75.5l80 -2l-2 -143q52 164 133 170h11q49 0 81 -32q35 -36 35 -93q0 -44 -29 -173.5t-29 -178.5q0 -30 11.5 -59t37.5 -29q22 0 41.5 12t37 35.5t27.5 40t24 46t16 32.5q6 13 11.5 29t8 23t4.5 7 q3 0 6 -14q2 -8 2 -13q0 -4 -1 -6q-7 -24 -15 -43q-79 -190 -168 -190q-58 0 -83 46t-25 109q0 43 24.5 163.5t24.5 164.5q0 28 -11 52t-38 24q-26 0 -50.5 -35t-41 -88t-26.5 -93.5t-15 -72.5q-6 -26 -8 -57q-2 -22 -1 -47v-20q1 -36 2 -59t4 -59.5t3 -44.5z" />
<glyph unicode="o" horiz-adv-x="454" d="M0 279q0 48 13.5 105t38.5 111t68 90t95 36q38 0 65 -26t38 -63q10 -38 17 -78q5 -32 5 -56v-14q-2 -30 0 -41v-3q0 -125 -33 -227q20 -4 35 -4q72 0 111 84q7 13 13 29t8.5 23t4.5 7q3 0 4 -14q1 -6 1 -10q0 -6 -1 -9q-2 -15 -14 -43q-5 -15 -13.5 -29.5t-24 -35 t-40.5 -33t-55 -12.5q-24 0 -45 6q-45 -98 -117 -101q-40 0 -71.5 22.5t-50 56t-31 76.5t-17 80.5t-4.5 72.5zM72 272q0 -30 6 -68t18 -79.5t37 -69.5t57 -28q48 0 78 55q-45 23 -71.5 79t-28.5 119v19q0 53 9 103q11 58 41 95q27 33 60 33h7q-30 37 -66 37h-6 q-37 -1 -66 -35t-44.5 -84t-23 -96t-7.5 -80zM214 249q18 -92 73 -126q24 73 24 209q0 166 -37 166q-39 -1 -59 -79q-10 -41 -10 -85q0 -41 9 -85z" />
<glyph unicode="p" horiz-adv-x="387" d="M-4 -786q9 436 9 877q0 264 -3 530l72 10q-4 -28 -8 -72q0 -35 2 -53q46 115 112 115q46 0 81.5 -33t53.5 -83.5t26.5 -99.5t8.5 -92v-13q0 -63 -18 -130q-19 -73 -66.5 -130.5t-111.5 -57.5q-33 0 -53 10.5t-31 38.5q-1 -17 -3 -50t-4 -143q-1 -56 -1 -113.5t1 -117.5 q0 -56 3.5 -154t7.5 -169l4 -70h-82zM70 106q45 -69 86 -69q34 0 61 33t41.5 81t21.5 92t7 76q0 29 -4.5 65.5t-15 79t-33 71t-52.5 28.5q-28 0 -50 -22.5t-34 -59.5t-18 -74.5t-8 -76.5v-49q0 -120 -2 -175z" />
<glyph unicode="q" horiz-adv-x="411" d="M2 262q0 44 12.5 100t35.5 111.5t63 93t88 37.5q56 0 84 -69v79h82q-8 -47 -13 -647l2 -760l-67 -10q8 336 8 461v59q0 45 -1 89q-1 74 -3.5 118t-6 87.5t-3.5 51.5q-41 -108 -109 -108q-47 0 -82.5 33t-54 83.5t-27 99.5t-8.5 91zM66 254q0 -27 5 -63.5t15.5 -79t33 -71 t52.5 -28.5q32 0 55 27t34 71t16 84t6 80v205q-35 72 -84 72q-34 0 -61.5 -35.5t-42 -86t-22 -97t-7.5 -78.5z" />
<glyph unicode="r" horiz-adv-x="432" d="M-2 518q-3 11 -3 22q-1 16 7 31q12 24 41 27h6q35 0 51 -45q12 -32 12 -59q0 -14 -3 -27q44 0 78.5 14t33.5 41h88q-31 -35 -62 -155q-28 -108 -28 -208q1 -11 1 -23q4 -111 61 -111q11 0 22.5 3.5t20.5 8t19 14t16.5 16t15.5 20t13.5 20.5t13 23t11 21.5t10.5 22.5t9 19 q24 57 25 57q3 0 5 -12q1 -7 2 -12q0 -4 -1 -7q-9 -31 -14 -43q-39 -102 -86.5 -151.5t-112.5 -49.5q-53 0 -79 45q-27 44 -27 108v7q0 61 10 127q10 70 23 118.5t20 65.5q-47 -9 -78 -9q-12 0 -21 1q-11 -55 -42.5 -150.5t-43.5 -119.5q-7 -9 -12 5q-2 5 -2 10t2 10 q17 41 38.5 114.5t29.5 134.5q-22 6 -42.5 27.5t-27.5 48.5zM12 522q18 -49 58 -55q3 17 3 32q0 25 -8 43q-11 26 -31 25h-3q-11 -1 -17 -17q-3 -9 -4 -17q0 -6 2 -11z" />
<glyph unicode="s" horiz-adv-x="311" d="M-2 188q30 70 60 202q21 93 22 157q0 27 -4 49l65 2q-10 -39 -10 -90q0 -45 15 -85t37 -70.5t44 -59.5t37 -64t15 -73q0 -65 -45.5 -121.5t-108.5 -59.5h-7q-63 0 -90 49q-12 21 -12 40q0 18 10 34q15 21 42 23q13 -2 12 -6q0 -1 -2 -2q-20 -10 -21.5 -29.5t15.5 -36 t45 -16.5q47 0 74.5 38.5t27.5 88.5q0 11 -1.5 21.5t-5.5 22.5l-6.5 19.5t-10 21.5t-9.5 18t-11.5 20.5t-10.5 17.5q-30 50 -44 85.5t-20 82.5q-6 -26 -18.5 -78t-19 -77.5t-20 -65.5t-30.5 -76q-2 -7 -11 0q-5 4 -5 10q0 4 2 8z" />
<glyph unicode="t" horiz-adv-x="258" d="M-139 932l155 10q0 156 -8 281h94q-17 -126 -24 -277q24 2 70.5 4t72.5 4l-4 -53l-141 -2q-2 -41 -2 -119q0 -84 -4 -228t-4 -228q0 -293 59 -293q35 0 65 42t66 120q6 13 12.5 28.5t9.5 22t5 6.5q3 0 5 -12q1 -5 0 -10q0 -6 -1 -9q-3 -22 -15 -43q-80 -192 -149 -192 q-29 0 -51.5 15t-35 43t-21 55t-11.5 66.5t-3.5 59.5t-0.5 51q0 112 8 310.5t8 312.5q-129 -11 -147 -14z" />
<glyph unicode="u" horiz-adv-x="440" d="M4 172q0 47 8 153t8 152q0 76 -2 115h82q-30 -93 -30 -356q0 -25 1.5 -51.5t6 -68t17 -67.5t30.5 -26q35 0 63 39t43 94.5t23 105.5t8 82q0 131 -8 215h86q-6 -20 -11 -45t-8 -58.5t-4.5 -57t-2.5 -66.5t-1 -58v-61.5v-48.5q0 -103 28 -103q3 0 7 2q34 13 90 132 q6 12 12.5 27.5t9.5 21.5t5 6q3 0 5 -12q1 -5 1 -9q0 -6 -2 -10q0 -2 -12 -43q-69 -184 -119 -184q-25 1 -42.5 19t-24.5 45.5t-9.5 52t-1.5 49.5q-9 -36 -24.5 -74t-46 -72.5t-64.5 -34.5q-42 0 -71 35t-39.5 77t-10.5 83z" />
<glyph unicode="v" horiz-adv-x="368" d="M-39 573l94 7q-18 -42 -18 -152q0 -57 31.5 -190.5t74.5 -212.5q104 190 125 417q1 6 1 16q0 29 -7 85l70 4q-3 -5 -8 -54.5t-5 -62.5q-8 -90 -71 -278.5t-109 -188.5q-31 0 -93 191t-75 307q-2 23 -3 44.5t-1.5 31.5t-1.5 19.5t-4 16.5z" />
<glyph unicode="w" horiz-adv-x="657" d="M2 598h94q-18 -60 -18 -236q0 -195 18 -267q16 -64 45 -64q38 0 82.5 159.5t44.5 219.5q0 46 -10 75l90 -4q-16 -35 -16 -112q0 -32 4.5 -73.5t15.5 -90.5t34 -82t54 -33q36 0 64 80t38.5 158.5t10.5 120.5q0 51 -6 100h71q-8 -15 -13 -75t-11 -130t-19 -140t-45 -116.5 t-81 -46.5q-62 0 -106.5 67.5t-53.5 137.5q-8 -39 -17.5 -75t-28.5 -87.5t-47 -83t-61 -31.5q-28 0 -49 19t-33.5 53.5t-21 72.5t-12 86.5t-5 83.5t-1.5 76t-1 52q-9 182 -10 186z" />
<glyph unicode="x" horiz-adv-x="425" d="M-20 -115q1 3 37 131t69 205q-22 65 -37.5 143t-26.5 127.5t-28 73.5l72 29q9 -82 65 -287q85 163 164 209l55 -16q-115 -74 -203 -256q11 -42 35 -107q35 -92 107 -92q21 0 42.5 15t41 43.5t29.5 46t24 45.5q7 14 12.5 29t8 21.5t4.5 6.5q3 0 5 -14q1 -8 2 -12 q0 -4 -1 -7q-6 -22 -17 -41q-50 -93 -89.5 -141.5t-80.5 -48.5q-108 0 -168 151q-47 -121 -82 -254h-40z" />
<glyph unicode="y" horiz-adv-x="393" d="M2 502h78q-23 -95 -23 -228q0 -217 58 -217q36 0 82.5 146t46.5 211q0 102 -4 131h75q-10 -77 -10 -228q0 -98 4 -227v-51q66 112 82 154q21 59 25 59q3 0 6 -14q1 -7 1 -12q0 -4 -1 -7q-3 -22 -12 -43q-8 -20 -22.5 -50t-38.5 -76.5t-38 -76.5q1 -54 1.5 -142.5 t1 -153.5t1.5 -87q0 -47 -1.5 -86.5t-5.5 -86.5t-12 -82t-19.5 -65t-30.5 -45q-17 -13 -37 -13h-6q-38 4 -59 76q-20 68 -20 156v8q1 94 15 188q22 138 119 309q-7 267 -14 299q-7 -33 -17.5 -70t-28.5 -91t-41.5 -89t-47.5 -35q-19 0 -34 11t-25.5 33.5t-18.5 45.5 t-12.5 59t-7.5 61t-4 64.5t-1.5 56.5t0.5 50v33q0 43 -4 125zM172 -558q4 -61 14.5 -99.5t20.5 -38.5q15 0 24.5 21.5t17 92.5t9.5 197q0 6 2 99v99v52q-72 -172 -84 -287q-5 -50 -5 -94q0 -22 1 -42z" />
<glyph unicode="z" horiz-adv-x="423" d="M-2 188q18 44 38 109.5t34.5 114t34.5 96t48.5 74t65.5 28.5h8q48 0 82 -31q37 -34 37 -81q0 -46 -12 -89t-26 -72.5t-44.5 -67.5t-48.5 -56.5t-57 -56.5q32 18 80 18q80 0 114 -111q46 78 70 130q6 13 12.5 29t9.5 23t5 7q3 0 5 -14q1 -6 0 -10q0 -6 -1 -9 q-3 -19 -13 -43q-12 -33 -78 -164q7 -54 7 -86q0 -124 -7 -237t-21.5 -214t-41.5 -160q-26 -56 -60 -56h-3q-60 5 -86 103q-14 52 -14 114q0 54 11 116q26 149 152 379q-14 164 -102 164q-10 0 -27 -5.5t-26 -5t-13 12.5t6.5 28.5t33 42.5t34.5 44q71 107 71 229 q0 35 -16 57.5t-49 18.5q-34 -3 -69 -70t-74.5 -176t-55.5 -141q-2 -7 -10 0q-5 5 -5 11q0 3 1 7zM184 -586q8 -44 19 -64t22 -20q61 0 66 308q0 24 4.5 108.5t5.5 138.5q-103 -228 -117 -354q-4 -38 -4 -68q0 -27 4 -49z" />
<glyph unicode="{" horiz-adv-x="239" d="M4 692q26 25 45 49t29 51t17 47.5t5 52t-2.5 48.5t-11 54t-15 51.5t-19 57t-19.5 56.5q-21 61 -25.5 121.5t10.5 117t47.5 100t90.5 69.5t135 26q4 0 4.5 -27.5t-1.5 -55.5l-1 -27q-146 0 -195.5 -65.5t-17.5 -172.5q10 -33 30.5 -94t32.5 -99t23.5 -93.5t10 -96.5 t-16.5 -88t-47 -86q32 -39 47 -86t16 -87.5t-10 -95t-23 -92.5t-32.5 -98t-30.5 -94q-32 -108 17 -173.5t196 -65.5q6 -111 -2 -111q-77 0 -135 26t-90.5 69.5t-47.5 100t-10.5 118t25.5 122.5q5 15 17.5 51.5t17.5 51.5t14.5 47t11.5 48.5t5.5 45.5t0 47t-9 44t-17 46 t-29 44t-40.5 46z" />
<glyph unicode="|" horiz-adv-x="262" d="M59 1401h109q-9 -159 12 -1419h-104q8 497 6 893t-23 526z" />
<glyph unicode="}" horiz-adv-x="239" d="M-57.5 -187.5q-0.5 27.5 1.5 55.5l1 28q147 0 196.5 66t16.5 173q-10 34 -30.5 94t-32.5 98t-23 92.5t-10 95t16 87.5t47 86q-32 39 -47 86t-16.5 88t10 96.5t23.5 93.5t32.5 99t30.5 94q33 106 -16.5 172t-196.5 66q-6 110 2 110q77 0 135 -26t90.5 -69.5t47.5 -100 t10.5 -117t-25.5 -121.5q-5 -15 -17.5 -51t-17.5 -51t-14.5 -47.5t-11.5 -48.5t-5.5 -44.5t0 -46.5t9 -43.5t17 -45.5t28.5 -43.5t40 -45.5q-23 -22 -40 -46t-28.5 -44t-17 -46t-9 -44t0 -47.5t5.5 -45t11.5 -48.5t14.5 -47.5t17.5 -51.5t17.5 -51q21 -61 25.5 -122.5 t-10.5 -118t-47.5 -100t-90.5 -69.5t-135 -26q-4 0 -4.5 27.5z" />
<glyph unicode="~" horiz-adv-x="436" d="M70 795q41 16 82 16q24 -1 70.5 -14t72.5 -13q25 0 63 15v-58q-28 -14 -61 -14q-68 0 -145 25q-33 10 -78 -19z" />
<glyph unicode="&#xa1;" horiz-adv-x="323" d="M86 -16q37 143 55 461t4 751h76q-9 -421 1.5 -751.5t25.5 -460.5h-162zM143 1339q0 22 15 43t37 21q20 0 33.5 -20.5t13.5 -43.5q0 -25 -15.5 -46t-38.5 -21t-34 20.5t-11 46.5z" />
<glyph unicode="&#xa2;" horiz-adv-x="446" d="M-2 242q-4 90 30 194.5t105 136.5q-7 122 -10 134h80q-1 -16 -4 -56.5t-4 -64.5q45 -4 69.5 -53t26.5 -101q0 -23 -12 -29q-5 5 -10.5 27t-10.5 43.5t-22 39.5t-43 19q-10 -265 6 -503q64 5 94 59q10 21 14 -5q4 -20 0 -24q-46 -59 -104 -73q5 -55 16 -115h-74 q9 18 9 113q-42 5 -73 31.5t-48 66t-25 79t-10 81.5zM63 238q10 -172 91 -203q-3 225 -17 473q-38 -39 -57 -126.5t-17 -143.5z" />
<glyph unicode="&#xa3;" horiz-adv-x="667" d="M39 584v108q70 -6 158 -8q-18 146 -20.5 264t6.5 191.5t30.5 127t41.5 79.5t48 40.5t42.5 16.5t33.5 2q86 0 146 -74t67 -205h-53q-18 92 -62 151.5t-100 53.5q-43 -4 -72 -36t-42 -83t-18.5 -111.5t-2 -128.5t8.5 -126t11 -111q5 -38 6 -53q208 0 256 31v-90 q-33 17 -250 -2q23 -314 -51 -560q55 35 143.5 41.5t163 -7.5t111.5 -38q0 -5 -6 -65q-177 65 -479 -10q9 38 22 114.5t25 231.5t2 284q-129 -13 -166 -28z" />
<glyph unicode="&#xa8;" horiz-adv-x="514" d="M121 772q0 22 14.5 43t36.5 21q20 0 33.5 -20.5t13.5 -43.5q0 -25 -15 -46t-38 -21t-34 20.5t-11 46.5zM264 772q0 22 14.5 43t36.5 21q20 0 33.5 -20.5t13.5 -43.5q0 -26 -14 -46.5t-37 -20.5q-24 0 -35.5 20.5t-11.5 46.5z" />
<glyph unicode="&#xaa;" horiz-adv-x="475" d="M94 758q0 43 27.5 85t85.5 42q16 0 31 -6v4h53q0 -15 -2 -17l-2 -10q-4 -16 -4 -37q-4 -40 -4 -80q0 -1 -0.5 -6t-0.5 -10.5t1 -9.5q1 -2 1 -7t1 -6.5t4 -1.5q17 0 34 29l13 16q4 11 6 13q6 12 14 12q2 0 6.5 -9.5t3.5 -13.5q-1 -3 -3 -8t-3 -8q-37 -67 -77 -67 q-29 0 -41 24q-22 -29 -58 -29q-46 0 -66 32.5t-20 68.5zM154 745q0 -4 1 -13.5t3 -14.5t5.5 -11t9 -9t13.5 -3q25 0 36.5 31t13.5 68v38q0 23 -23 23q-28 0 -43.5 -29t-15.5 -57v-10v-13z" />
<glyph unicode="&#xab;" horiz-adv-x="432" />
<glyph unicode="&#xac;" horiz-adv-x="403" d="M6 623l80 2q-4 -35 -4 -70v-53q44 110 111 110q72 0 122 -87.5t50 -213.5q0 -129 -57 -233.5t-136 -104.5q-59 0 -86 78l-12 -960q-64 535 -64 719zM86 102q39 -75 86 -75q32 0 58.5 32t41 79.5t22 94.5t7.5 84q0 84 -28 163t-78 79t-80.5 -73t-28.5 -164q2 -68 0 -220z " />
<glyph unicode="&#xad;" horiz-adv-x="536" d="M72 547v92q248 -17 391 12v-98q-27 19 -189.5 16t-201.5 -22z" />
<glyph unicode="&#xb0;" horiz-adv-x="475" d="M104 772q0 41 31 71.5t76 30.5q50 0 79 -29t29 -73q0 -41 -31 -72.5t-77 -31.5q-49 0 -78 29.5t-29 74.5zM162 774q0 -24 15 -40.5t34 -16.5q22 0 36.5 16t14.5 41q0 22 -14.5 36.5t-36.5 14.5t-35.5 -14.5t-13.5 -36.5z" />
<glyph unicode="&#xb4;" horiz-adv-x="514" d="M209 694q74 139 82 170l86 -20q-14 -11 -41 -48.5t-48 -69.5l-20 -32h-59z" />
<glyph unicode="&#xb7;" horiz-adv-x="204" d="M53 399q0 21 14.5 36.5t36.5 15.5q21 0 34.5 -15.5t13.5 -36.5q0 -22 -15 -37.5t-39 -15.5q-45 0 -45 53z" />
<glyph unicode="&#xba;" horiz-adv-x="475" d="M135 768q0 40 30 81.5t85 41.5q65 0 69 -86q0 -50 -14 -86h6q29 0 45 24q8 12 9 13q6 12 12 12q3 0 8 -9.5t4 -13.5q-3 -8 -8 -16q-25 -41 -74 -41h-18q-22 -33 -60 -33q-36 0 -58.5 22t-29 45.5t-6.5 45.5zM188 766q0 -23 12 -48.5t38 -25.5q13 0 22 6q-43 22 -43 78 q-2 25 9 48t30 32h-8q-31 0 -45.5 -31t-14.5 -59zM254 776q3 -31 25 -47q8 24 8 57q0 1 0.5 7t0.5 12.5t-0.5 13t-2.5 11t-6 4.5q-10 -2 -18 -18t-7 -40z" />
<glyph unicode="&#xbb;" horiz-adv-x="423" />
<glyph unicode="&#xbf;" horiz-adv-x="499" d="M37.5 379.5q-6.5 106.5 13.5 200.5q18 95 122 295q83 158 97 201q23 71 -24 71h-4h-4.5t-5.5 -1t-6.5 -2.5t-6 -5t-6.5 -8t-6.5 -12t-6 -17t-5.5 -22.5t-5 -28q-8 2 -13.5 19t-5 40t7 45t25.5 37.5t48 15.5q53 0 68 -52t-11 -114q-17 -44 -44 -94.5t-46.5 -87.5 t-44 -116.5t-43.5 -188.5q-19 -126 -2 -240t49 -193.5t55 -80.5q53 -1 92.5 63t53.5 148.5t-1.5 172t-62.5 130.5h70q60 -80 75.5 -168t-6.5 -159t-60.5 -129.5t-83.5 -91t-79 -32.5q-55 0 -99.5 59t-66 149t-28 196.5zM193 1346q0 25 15 45t38 20t34 -20t11 -45 q0 -22 -14.5 -44t-34.5 -22q-22 0 -35.5 21.5t-13.5 44.5z" />
<glyph unicode="&#xc0;" horiz-adv-x="737" d="M22 374q-12 124 5 269q16 149 58.5 280.5t97.5 220.5t117 152.5t119 90t101 18.5q40 -7 67 -43.5t37 -86.5t13 -86t2 -65l-35 2q0 16 -5 43t-16.5 62t-34.5 61.5t-54 30.5q-43 6 -100 -46t-111.5 -140.5t-100.5 -217t-67 -262.5q-21 -163 -7 -303.5t58 -235t100 -95.5 q48 -1 85 43.5t60.5 125t36.5 182.5t17 226q13 481 14 498q4 68 0 96q12 0 43 1t47 1q-18 -288 -25 -475t-4.5 -338.5t20 -241.5t47.5 -149t79 -96q-90 23 -139 117.5t-68 265.5q-35 -152 -89 -236.5t-134 -81.5q-59 2 -108.5 54.5t-81.5 143.5t-44 215zM348 1618l88 20 q3 -14 23 -56.5t39 -77.5l18 -36l-57 2q-80 123 -111 148z" />
<glyph unicode="&#xc1;" horiz-adv-x="737" d="M22 374q-12 124 5 269q16 149 58.5 280.5t97.5 220.5t117 152.5t119 90t101 18.5q40 -7 67 -43.5t37 -86.5t13 -86t2 -65l-35 2q0 16 -5 43t-16.5 62t-34.5 61.5t-54 30.5q-43 6 -100 -46t-111.5 -140.5t-100.5 -217t-67 -262.5q-21 -163 -7 -303.5t58 -235t100 -95.5 q48 -1 85 43.5t60.5 125t36.5 182.5t17 226q13 481 14 498q4 68 0 96q12 0 43 1t47 1q-18 -288 -25 -475t-4.5 -338.5t20 -241.5t47.5 -149t79 -96q-90 23 -139 117.5t-68 265.5q-35 -152 -89 -236.5t-134 -81.5q-59 2 -108.5 54.5t-81.5 143.5t-44 215zM514 1468 q74 139 80 170l88 -20q-14 -11 -41.5 -48t-48.5 -68l-21 -32z" />
<glyph unicode="&#xc2;" horiz-adv-x="737" d="M22 374q-12 124 5 269q16 149 58.5 280.5t97.5 220.5t117 152.5t119 90t101 18.5q40 -7 67 -43.5t37 -86.5t13 -86t2 -65l-35 2q0 16 -5 43t-16.5 62t-34.5 61.5t-54 30.5q-43 6 -100 -46t-111.5 -140.5t-100.5 -217t-67 -262.5q-21 -163 -7 -303.5t58 -235t100 -95.5 q48 -1 85 43.5t60.5 125t36.5 182.5t17 226q13 481 14 498q4 68 0 96q12 0 43 1t47 1q-18 -288 -25 -475t-4.5 -338.5t20 -241.5t47.5 -149t79 -96q-90 23 -139 117.5t-68 265.5q-35 -152 -89 -236.5t-134 -81.5q-59 2 -108.5 54.5t-81.5 143.5t-44 215zM381 1456 q2 0 23 43.5t41 86.5l20 44h70l81 -174h-67q-4 13 -16.5 37t-22.5 41l-10 18q-41 -67 -49 -96h-70z" />
<glyph unicode="&#xc3;" horiz-adv-x="737" d="M22 374q-12 124 5 269q16 149 58.5 280.5t97.5 220.5t117 152.5t119 90t101 18.5q40 -7 67 -43.5t37 -86.5t13 -86t2 -65l-35 2q0 16 -5 43t-16.5 62t-34.5 61.5t-54 30.5q-43 6 -100 -46t-111.5 -140.5t-100.5 -217t-67 -262.5q-21 -163 -7 -303.5t58 -235t100 -95.5 q48 -1 85 43.5t60.5 125t36.5 182.5t17 226q13 481 14 498q4 68 0 96q12 0 43 1t47 1q-18 -288 -25 -475t-4.5 -338.5t20 -241.5t47.5 -149t79 -96q-90 23 -139 117.5t-68 265.5q-35 -152 -89 -236.5t-134 -81.5q-59 2 -108.5 54.5t-81.5 143.5t-44 215zM369 1520 q41 16 82 16q26 -1 71.5 -14t71.5 -13q29 0 63 15v-58q-28 -14 -61 -14q-25 1 -73.5 12.5t-71.5 12.5q-47 3 -78 -19z" />
<glyph unicode="&#xc4;" horiz-adv-x="737" d="M22 374q-12 124 5 269q16 149 58.5 280.5t97.5 220.5t117 152.5t119 90t101 18.5q40 -7 67 -43.5t37 -86.5t13 -86t2 -65l-35 2q0 16 -5 43t-16.5 62t-34.5 61.5t-54 30.5q-43 6 -100 -46t-111.5 -140.5t-100.5 -217t-67 -262.5q-21 -163 -7 -303.5t58 -235t100 -95.5 q48 -1 85 43.5t60.5 125t36.5 182.5t17 226q13 481 14 498q4 68 0 96q12 0 43 1t47 1q-18 -288 -25 -475t-4.5 -338.5t20 -241.5t47.5 -149t79 -96q-90 23 -139 117.5t-68 265.5q-35 -152 -89 -236.5t-134 -81.5q-59 2 -108.5 54.5t-81.5 143.5t-44 215zM387 1522 q0 24 14.5 44.5t36.5 20.5t35.5 -20.5t13.5 -44.5q0 -25 -15 -45.5t-38 -20.5t-35 20.5t-12 45.5zM541 1522q0 24 14.5 44.5t36.5 20.5t35.5 -20.5t13.5 -44.5q0 -25 -15 -45.5t-38 -20.5t-35 20.5t-12 45.5z" />
<glyph unicode="&#xc5;" horiz-adv-x="737" d="M22 374q-12 124 5 269q16 149 58.5 280.5t97.5 220.5t117 152.5t119 90t101 18.5q40 -7 67 -43.5t37 -86.5t13 -86t2 -65l-35 2q0 16 -5 43t-16.5 62t-34.5 61.5t-54 30.5q-43 6 -100 -46t-111.5 -140.5t-100.5 -217t-67 -262.5q-21 -163 -7 -303.5t58 -235t100 -95.5 q48 -1 85 43.5t60.5 125t36.5 182.5t17 226q13 481 14 498q4 68 0 96q12 0 43 1t47 1q-18 -288 -25 -475t-4.5 -338.5t20 -241.5t47.5 -149t79 -96q-90 23 -139 117.5t-68 265.5q-35 -152 -89 -236.5t-134 -81.5q-59 2 -108.5 54.5t-81.5 143.5t-44 215zM434 1563 q0 40 30.5 70t76.5 30q50 0 79 -28.5t29 -71.5q0 -42 -31 -73.5t-77 -31.5q-50 0 -78.5 29t-28.5 76zM492 1565q0 -26 14 -42t35 -16t35 16t14 42q0 21 -14 35t-35 14t-35 -14t-14 -35z" />
<glyph unicode="&#xc6;" horiz-adv-x="997" d="M12 -2q8 43 23 116.5t59.5 275.5t87 375t98.5 361.5t101 288.5l59 8q0 -84 2 -213q32 60 89.5 101t116 57.5t112.5 24.5t88 7l35 -1q4 -64 0 -70q-63 10 -129 -1.5t-122.5 -42.5t-95 -86t-44.5 -124q-14 -187 170 -299q48 -28 51 -36.5t-18 -29.5q-13 -13 -19 -20 q-31 -33 -53 -61t-53 -78.5t-49 -115t-19 -136.5t16 -127t47 -87t66 -47.5t76 -14.5q54 2 95 23t61 53t33 70t12 73t-3 63q37 -26 43.5 -82.5t-15 -113.5t-81 -99t-141.5 -41q-65 0 -130 26t-108 85q6 -68 10 -84l-86 -2q15 52 15 287q-103 8 -265 -2q-42 -205 -36 -285z M164 352q136 -16 250 -2q0 148 -4 356t-8 354.5t-3 174.5q-153 -505 -235 -883zM449 905q2 -165 10 -430q8 17 17.5 35t18 32t20 30.5t19 26.5t20 25.5t18 21.5t18 21t14.5 17q32 33 32 39.5t-40 28.5q-92 55 -147 153z" />
<glyph unicode="&#xc7;" horiz-adv-x="651" d="M10 670q0 125 19 247t57.5 233t106.5 179.5t157 69.5q81 1 128 -37.5t70.5 -138.5t20.5 -275q-2 16 -7 42.5t-24.5 93.5t-42.5 118.5t-64 93.5t-87 41q-64 -1 -111 -65.5t-71 -169t-35 -214t-10 -222.5q1 -103 16.5 -214.5t42 -210t69 -162.5t91.5 -65q42 -1 77.5 19 t58.5 50.5t41 73.5t27.5 82t16 82t8 66.5t2.5 42.5q16 -13 23 -64t-3 -118t-34 -131t-76.5 -109.5t-124.5 -48.5l-8 -22q23 5 43.5 -3.5t20.5 -33.5q0 -32 -36 -44.5t-83 5.5l14 16q13 -10 37.5 -3.5t24.5 22.5q0 31 -48 20l-2 2l17 41q-82 4 -146 72t-101 175t-55.5 225.5 t-19.5 238.5z" />
<glyph unicode="&#xc8;" horiz-adv-x="628" d="M18 1098q9 68 39.5 121.5t72 84.5t90 52.5t95.5 29.5t85 11.5t62 2.5l23 -1l2 -70q-63 10 -128.5 -1.5t-121 -42.5t-93 -85.5t-42.5 -124.5q-16 -189 164 -299q51 -31 51.5 -40t-38.5 -46q-139 -154 -144 -391q-1 -72 16.5 -127t47.5 -87t66.5 -47.5t76.5 -14.5 q54 2 95 23t61.5 53t33.5 70t12 73t-3 63q29 -21 40 -62t0.5 -88t-37.5 -89.5t-79.5 -70t-118.5 -26.5q-39 0 -77 8t-79 31t-71.5 58t-49.5 94t-18 135q2 215 158 389q5 6 13 14q14 15 16.5 20.5t-2.5 11t-24 16.5q-7 4 -11 6q-88 51 -142 148.5t-41 197.5zM207 1618l88 20 q3 -14 23 -56.5t38 -77.5l19 -36l-58 2q-79 123 -110 148z" />
<glyph unicode="&#xc9;" horiz-adv-x="628" d="M18 1098q9 68 39.5 121.5t72 84.5t90 52.5t95.5 29.5t85 11.5t62 2.5l23 -1l2 -70q-63 10 -128.5 -1.5t-121 -42.5t-93 -85.5t-42.5 -124.5q-16 -189 164 -299q51 -31 51.5 -40t-38.5 -46q-139 -154 -144 -391q-1 -72 16.5 -127t47.5 -87t66.5 -47.5t76.5 -14.5 q54 2 95 23t61.5 53t33.5 70t12 73t-3 63q29 -21 40 -62t0.5 -88t-37.5 -89.5t-79.5 -70t-118.5 -26.5q-39 0 -77 8t-79 31t-71.5 58t-49.5 94t-18 135q2 215 158 389q5 6 13 14q14 15 16.5 20.5t-2.5 11t-24 16.5q-7 4 -11 6q-88 51 -142 148.5t-41 197.5zM350 1468 q74 139 80 170l88 -20q-14 -11 -41.5 -48t-48.5 -68l-20 -32z" />
<glyph unicode="&#xca;" horiz-adv-x="628" d="M18 1098q9 68 39.5 121.5t72 84.5t90 52.5t95.5 29.5t85 11.5t62 2.5l23 -1l2 -70q-63 10 -128.5 -1.5t-121 -42.5t-93 -85.5t-42.5 -124.5q-16 -189 164 -299q51 -31 51.5 -40t-38.5 -46q-139 -154 -144 -391q-1 -72 16.5 -127t47.5 -87t66.5 -47.5t76.5 -14.5 q54 2 95 23t61.5 53t33.5 70t12 73t-3 63q29 -21 40 -62t0.5 -88t-37.5 -89.5t-79.5 -70t-118.5 -26.5q-39 0 -77 8t-79 31t-71.5 58t-49.5 94t-18 135q2 215 158 389q5 6 13 14q14 15 16.5 20.5t-2.5 11t-24 16.5q-7 4 -11 6q-88 51 -142 148.5t-41 197.5zM238 1456 q2 0 23 43.5t41 86.5l20 44h69l82 -174h-67q-4 13 -16.5 37t-23.5 41l-10 18q-41 -67 -49 -96h-69z" />
<glyph unicode="&#xcb;" horiz-adv-x="628" d="M18 1098q9 68 39.5 121.5t72 84.5t90 52.5t95.5 29.5t85 11.5t62 2.5l23 -1l2 -70q-63 10 -128.5 -1.5t-121 -42.5t-93 -85.5t-42.5 -124.5q-16 -189 164 -299q51 -31 51.5 -40t-38.5 -46q-139 -154 -144 -391q-1 -72 16.5 -127t47.5 -87t66.5 -47.5t76.5 -14.5 q54 2 95 23t61.5 53t33.5 70t12 73t-3 63q29 -21 40 -62t0.5 -88t-37.5 -89.5t-79.5 -70t-118.5 -26.5q-39 0 -77 8t-79 31t-71.5 58t-49.5 94t-18 135q2 215 158 389q5 6 13 14q14 15 16.5 20.5t-2.5 11t-24 16.5q-7 4 -11 6q-88 51 -142 148.5t-41 197.5zM227 1536 q0 22 15 42.5t37 20.5q20 0 33.5 -20.5t13.5 -42.5q0 -25 -15.5 -46.5t-38.5 -21.5t-34 21t-11 47zM381 1536q0 22 14.5 42.5t36.5 20.5q20 0 33.5 -20.5t13.5 -42.5q0 -25 -15 -46.5t-38 -21.5t-34 21t-11 47z" />
<glyph unicode="&#xcc;" horiz-adv-x="548" d="M17 133q-13 58 9 111.5t62 99.5t88 72l35 -66q-76 -20 -112.5 -80t-26.5 -123t55 -98q34 -27 76.5 -30t80.5 14.5t70 53.5t47 83q33 103 41.5 307t-5 401t-50.5 346t-86 150q-58 3 -96 -62.5t-50 -168t-3 -225.5q10 -154 65 -287.5t133 -196.5l-53 -61q-71 83 -136 234 t-75 302q-9 134 10.5 248t73.5 187t133 69q79 -3 132 -135t71 -319t6 -386q-6 -91 -9.5 -138.5t-16 -125t-31.5 -137.5q-26 -80 -72.5 -128t-99.5 -58t-105 2t-94 45q-54 42 -67 100zM156 1618l88 20q3 -14 23 -56.5t39 -77.5l18 -36l-58 2q-79 123 -110 148z" />
<glyph unicode="&#xcd;" horiz-adv-x="548" d="M17 133q-13 58 9 111.5t62 99.5t88 72l35 -66q-76 -20 -112.5 -80t-26.5 -123t55 -98q34 -27 76.5 -30t80.5 14.5t70 53.5t47 83q33 103 41.5 307t-5 401t-50.5 346t-86 150q-58 3 -96 -62.5t-50 -168t-3 -225.5q10 -154 65 -287.5t133 -196.5l-53 -61q-71 83 -136 234 t-75 302q-9 134 10.5 248t73.5 187t133 69q79 -3 132 -135t71 -319t6 -386q-6 -91 -9.5 -138.5t-16 -125t-31.5 -137.5q-26 -80 -72.5 -128t-99.5 -58t-105 2t-94 45q-54 42 -67 100zM279 1479q73 139 79 170l88 -21q-14 -11 -41.5 -48t-48.5 -68l-20 -31z" />
<glyph unicode="&#xce;" horiz-adv-x="548" d="M17 133q-13 58 9 111.5t62 99.5t88 72l35 -66q-76 -20 -112.5 -80t-26.5 -123t55 -98q34 -27 76.5 -30t80.5 14.5t70 53.5t47 83q33 103 41.5 307t-5 401t-50.5 346t-86 150q-58 3 -96 -62.5t-50 -168t-3 -225.5q10 -154 65 -287.5t133 -196.5l-53 -61q-71 83 -136 234 t-75 302q-9 134 10.5 248t73.5 187t133 69q79 -3 132 -135t71 -319t6 -386q-6 -91 -9.5 -138.5t-16 -125t-31.5 -137.5q-26 -80 -72.5 -128t-99.5 -58t-105 2t-94 45q-54 42 -67 100zM186 1466q2 0 23 43.5t41 86.5l20 44h70l82 -174h-68q-4 13 -16.5 37t-22.5 42l-10 18 q-41 -68 -49 -97h-70z" />
<glyph unicode="&#xcf;" horiz-adv-x="548" d="M17 133q-13 58 9 111.5t62 99.5t88 72l35 -66q-76 -20 -112.5 -80t-26.5 -123t55 -98q34 -27 76.5 -30t80.5 14.5t70 53.5t47 83q33 103 41.5 307t-5 401t-50.5 346t-86 150q-58 3 -96 -62.5t-50 -168t-3 -225.5q10 -154 65 -287.5t133 -196.5l-53 -61q-71 83 -136 234 t-75 302q-9 134 10.5 248t73.5 187t133 69q79 -3 132 -135t71 -319t6 -386q-6 -91 -9.5 -138.5t-16 -125t-31.5 -137.5q-26 -80 -72.5 -128t-99.5 -58t-105 2t-94 45q-54 42 -67 100zM176 1536q0 22 14.5 42.5t36.5 20.5q20 0 33.5 -20.5t13.5 -42.5q0 -25 -15 -46.5 t-38 -21.5t-34 21t-11 47zM330 1536q0 22 14.5 42.5t36.5 20.5q20 0 33.5 -20.5t13.5 -42.5q0 -25 -15 -46.5t-38 -21.5t-34 21t-11 47z" />
<glyph unicode="&#xd1;" horiz-adv-x="759" d="M18 1045q0 29 2 69.5t7.5 75t16.5 70.5t26.5 61.5t39.5 43t54 19.5q62 4 107.5 -46.5t65.5 -125t31.5 -150t11.5 -128.5l1 -53q6 34 14 89t13.5 93t14.5 86t20 80.5t26 62.5t36.5 46.5t47.5 19.5q74 7 116 -72.5t31 -191.5q-3 -28 -11.5 -114.5t-14 -143.5t-13 -151.5 t-12.5 -184.5q-6 -121 12.5 -245t46 -197.5t50.5 -73.5h-88q-8 0 -26 50t-34.5 165t-11.5 252q2 79 12 209.5t16.5 229.5t8 197.5t-13.5 154t-48 58.5q-50 4 -87 -102.5t-55.5 -261.5t-24.5 -350q-5 -93 -3 -220.5t15 -365.5h-119q28 229 29 593.5t-27 545.5 q-33 216 -110 212q-43 -2 -81 -67q0 -1 -1 -2q-30 -52 -35.5 -140t4.5 -150l10 -62h-65q-1 6 -1.5 15.5t-2 40t-1.5 59.5zM268 1489q41 16 82 16q26 -1 72 -13.5t72 -12.5q31 0 63 14v-57q-30 -15 -61 -15q-25 1 -74 12.5t-72 12.5q-47 3 -78 -19z" />
<glyph unicode="&#xd2;" d="M14.5 418q-1.5 81 0.5 148t7 109l5 42q73 4 73 -2q-15 -41 -18 -125.5t9 -183t33.5 -188.5t60 -150t85.5 -60q32 0 63.5 23t62.5 78.5t52.5 137.5t31.5 211t3 287q-8 169 -43 303t-87 206.5t-111 72.5q-32 0 -63 -41t-51.5 -95.5t-35.5 -117.5q-16 -69 -18 -118.5 t3 -80.5t28.5 -46.5t40 -22t57.5 -1t61.5 10.5t70.5 19q35 10 52 14q-93 -59 -162.5 -84.5t-109.5 -21t-63 32t-29.5 63.5t-3 85t11 86t18.5 76q9 34 23 72.5t38 85t50.5 82t62 55.5t72 13.5t80.5 -53t88 -134.5q65 -130 95 -280t26.5 -285t-30 -262t-69 -219t-96 -147.5 t-106.5 -55.5q-73 0 -126.5 42t-81 109t-43.5 148t-17.5 162zM135 1618l88 20q3 -14 23 -56.5t38 -77.5l19 -36l-57 2q-80 123 -111 148z" />
<glyph unicode="&#xd3;" d="M14.5 418q-1.5 81 0.5 148t7 109l5 42q73 4 73 -2q-15 -41 -18 -125.5t9 -183t33.5 -188.5t60 -150t85.5 -60q32 0 63.5 23t62.5 78.5t52.5 137.5t31.5 211t3 287q-8 169 -43 303t-87 206.5t-111 72.5q-32 0 -63 -41t-51.5 -95.5t-35.5 -117.5q-16 -69 -18 -118.5 t3 -80.5t28.5 -46.5t40 -22t57.5 -1t61.5 10.5t70.5 19q35 10 52 14q-93 -59 -162.5 -84.5t-109.5 -21t-63 32t-29.5 63.5t-3 85t11 86t18.5 76q9 34 23 72.5t38 85t50.5 82t62 55.5t72 13.5t80.5 -53t88 -134.5q65 -130 95 -280t26.5 -285t-30 -262t-69 -219t-96 -147.5 t-106.5 -55.5q-73 0 -126.5 42t-81 109t-43.5 148t-17.5 162zM279 1468q73 139 79 170l88 -20q-14 -11 -41.5 -48t-48.5 -68l-20 -32z" />
<glyph unicode="&#xd4;" d="M14.5 418q-1.5 81 0.5 148t7 109l5 42q73 4 73 -2q-15 -41 -18 -125.5t9 -183t33.5 -188.5t60 -150t85.5 -60q32 0 63.5 23t62.5 78.5t52.5 137.5t31.5 211t3 287q-8 169 -43 303t-87 206.5t-111 72.5q-32 0 -63 -41t-51.5 -95.5t-35.5 -117.5q-16 -69 -18 -118.5 t3 -80.5t28.5 -46.5t40 -22t57.5 -1t61.5 10.5t70.5 19q35 10 52 14q-93 -59 -162.5 -84.5t-109.5 -21t-63 32t-29.5 63.5t-3 85t11 86t18.5 76q9 34 23 72.5t38 85t50.5 82t62 55.5t72 13.5t80.5 -53t88 -134.5q65 -130 95 -280t26.5 -285t-30 -262t-69 -219t-96 -147.5 t-106.5 -55.5q-73 0 -126.5 42t-81 109t-43.5 148t-17.5 162zM166 1456q2 0 23 43.5t41 86.5l20 44h69l82 -174h-67q-4 13 -16.5 37t-22.5 41l-10 18q-41 -67 -49 -96h-70z" />
<glyph unicode="&#xd5;" d="M14.5 418q-1.5 81 0.5 148t7 109l5 42q73 4 73 -2q-15 -41 -18 -125.5t9 -183t33.5 -188.5t60 -150t85.5 -60q32 0 63.5 23t62.5 78.5t52.5 137.5t31.5 211t3 287q-8 169 -43 303t-87 206.5t-111 72.5q-32 0 -63 -41t-51.5 -95.5t-35.5 -117.5q-16 -69 -18 -118.5 t3 -80.5t28.5 -46.5t40 -22t57.5 -1t61.5 10.5t70.5 19q35 10 52 14q-93 -59 -162.5 -84.5t-109.5 -21t-63 32t-29.5 63.5t-3 85t11 86t18.5 76q9 34 23 72.5t38 85t50.5 82t62 55.5t72 13.5t80.5 -53t88 -134.5q65 -130 95 -280t26.5 -285t-30 -262t-69 -219t-96 -147.5 t-106.5 -55.5q-73 0 -126.5 42t-81 109t-43.5 148t-17.5 162zM145 1509q44 17 82 17q26 -1 72 -14t72 -13q31 0 63 14v-57q-28 -14 -61 -14q-25 1 -74 12t-72 12q-47 3 -77 -18z" />
<glyph unicode="&#xd6;" d="M14.5 418q-1.5 81 0.5 148t7 109l5 42q73 4 73 -2q-15 -41 -18 -125.5t9 -183t33.5 -188.5t60 -150t85.5 -60q32 0 63.5 23t62.5 78.5t52.5 137.5t31.5 211t3 287q-8 169 -43 303t-87 206.5t-111 72.5q-32 0 -63 -41t-51.5 -95.5t-35.5 -117.5q-16 -69 -18 -118.5 t3 -80.5t28.5 -46.5t40 -22t57.5 -1t61.5 10.5t70.5 19q35 10 52 14q-93 -59 -162.5 -84.5t-109.5 -21t-63 32t-29.5 63.5t-3 85t11 86t18.5 76q9 34 23 72.5t38 85t50.5 82t62 55.5t72 13.5t80.5 -53t88 -134.5q65 -130 95 -280t26.5 -285t-30 -262t-69 -219t-96 -147.5 t-106.5 -55.5q-73 0 -126.5 42t-81 109t-43.5 148t-17.5 162zM164 1522q0 24 14.5 44.5t36.5 20.5t35.5 -20.5t13.5 -44.5q0 -25 -15 -45.5t-38 -20.5t-35 20.5t-12 45.5zM317 1522q0 23 15 44t37 21t35.5 -20.5t13.5 -44.5q0 -25 -15 -45.5t-38 -20.5t-35.5 20.5 t-12.5 45.5z" />
<glyph unicode="&#xd7;" horiz-adv-x="561" d="M84 477q49 13 160 133q-119 119 -150 125l78 78q40 -61 121 -149q32 36 64.5 76t49.5 62l17 21l70 -69q-37 -19 -154 -140q35 -35 71 -68.5t55 -49.5l19 -17l-71 -71q-10 30 -123 153q-124 -131 -127 -166z" />
<glyph unicode="&#xd8;" d="M-8 -70q9 27 33 101t38 114q-83 213 -63 617q14 290 101 475q72 152 162 157q90 4 175 -143q33 94 43 140h119q-37 -75 -102 -258q52 -127 73 -270t13 -270t-36 -245t-70 -203t-93 -136.5t-102 -51.5q-87 0 -148 68l-29 -95h-114zM76 928q-25 -422 26 -666 q67 202 171.5 505t132.5 388q-33 82 -75 127t-89 45q-33 0 -64.5 -45.5t-52 -111t-34 -131t-15.5 -111.5zM156 96q48 -88 114 -88q32 0 63.5 23t62.5 78.5t52.5 137.5t31.5 211t3 287q-6 134 -32 259q-149 -424 -295 -908z" />
<glyph unicode="&#xd9;" horiz-adv-x="724" d="M4 1366h129q-31 -137 -33.5 -518.5t39.5 -654.5q12 -66 39.5 -110t61.5 -60.5t72.5 -15t73 20.5t62.5 51.5t41 72.5q-11 39 -14 84q-13 222 -13 494t5 400.5t-2 225.5h84q-34 -379 12 -1032q11 -150 40 -210t73 -63q35 -3 65 64l45 -23q-46 -71 -90.5 -100t-79.5 -17.5 t-61.5 43t-46.5 80.5q-15 -33 -51 -63t-81 -51t-96.5 -25.5t-96.5 9t-81 58t-51 115.5q-26 133 -33.5 399.5t-7 517.5t-4.5 308zM135 1618l88 20q3 -14 23 -56.5t38 -77.5l19 -36l-57 2q-80 123 -111 148z" />
<glyph unicode="&#xda;" horiz-adv-x="724" d="M4 1366h129q-31 -137 -33.5 -518.5t39.5 -654.5q12 -66 39.5 -110t61.5 -60.5t72.5 -15t73 20.5t62.5 51.5t41 72.5q-11 39 -14 84q-13 222 -13 494t5 400.5t-2 225.5h84q-34 -379 12 -1032q11 -150 40 -210t73 -63q35 -3 65 64l45 -23q-46 -71 -90.5 -100t-79.5 -17.5 t-61.5 43t-46.5 80.5q-15 -33 -51 -63t-81 -51t-96.5 -25.5t-96.5 9t-81 58t-51 115.5q-26 133 -33.5 399.5t-7 517.5t-4.5 308zM299 1448q74 139 80 170l88 -21q-14 -11 -41.5 -48t-48.5 -68l-21 -31z" />
<glyph unicode="&#xdb;" horiz-adv-x="724" d="M4 1366h129q-31 -137 -33.5 -518.5t39.5 -654.5q12 -66 39.5 -110t61.5 -60.5t72.5 -15t73 20.5t62.5 51.5t41 72.5q-11 39 -14 84q-13 222 -13 494t5 400.5t-2 225.5h84q-34 -379 12 -1032q11 -150 40 -210t73 -63q35 -3 65 64l45 -23q-46 -71 -90.5 -100t-79.5 -17.5 t-61.5 43t-46.5 80.5q-15 -33 -51 -63t-81 -51t-96.5 -25.5t-96.5 9t-81 58t-51 115.5q-26 133 -33.5 399.5t-7 517.5t-4.5 308zM176 1456q2 0 23 43.5t41 86.5l20 44h70l82 -174h-68q-4 13 -16.5 37t-22.5 41l-10 18q-41 -67 -49 -96h-70z" />
<glyph unicode="&#xdc;" horiz-adv-x="724" d="M4 1366h129q-31 -137 -33.5 -518.5t39.5 -654.5q12 -66 39.5 -110t61.5 -60.5t72.5 -15t73 20.5t62.5 51.5t41 72.5q-11 39 -14 84q-13 222 -13 494t5 400.5t-2 225.5h84q-34 -379 12 -1032q11 -150 40 -210t73 -63q35 -3 65 64l45 -23q-46 -71 -90.5 -100t-79.5 -17.5 t-61.5 43t-46.5 80.5q-15 -33 -51 -63t-81 -51t-96.5 -25.5t-96.5 9t-81 58t-51 115.5q-26 133 -33.5 399.5t-7 517.5t-4.5 308zM176 1505q0 22 14.5 43t36.5 21q20 0 33.5 -20.5t13.5 -43.5q0 -25 -15 -46t-38 -21t-34 20.5t-11 46.5zM330 1505q0 22 14.5 43t36.5 21 q20 0 33.5 -20.5t13.5 -43.5q0 -25 -15 -46t-38 -21t-34 20.5t-11 46.5z" />
<glyph unicode="&#xdd;" horiz-adv-x="632" d="M24 671q-3 163 3 295.5t7.5 257.5t-7.5 152h104q-34 -127 -34 -391.5t38 -527.5q14 -90 53.5 -135t86 -43t92 33.5t73.5 84.5q0 924 -4 975l86 -6q-20 -55 -20 -1061q93 55 196 55q-107 -26 -196 -112q0 -11 -0.5 -21.5t-1 -16.5t-0.5 -7q-28 -359 -71 -534t-107 -175 q-52 0 -89.5 76t-31.5 194q6 144 70 278.5t167 219.5v76q-25 -37 -67.5 -67t-92.5 -42t-97 -3.5t-84.5 54.5t-51.5 126q-18 102 -21 265zM240 1421q73 139 79 170l89 -20q-14 -12 -41.5 -49.5t-48.5 -69.5l-21 -31h-57zM268 -209q-10 -80 8.5 -146.5t51.5 -78.5q18 -6 37 54 t38 204.5t31 351.5q-67 -84 -110.5 -186.5t-55.5 -198.5z" />
<glyph unicode="&#xdf;" horiz-adv-x="567" d="M2 1280q-1 57 8 82.5t25.5 31t54.5 3.5q47 -3 99.5 -26.5t100 -64t80 -103.5t36.5 -136q6 -111 -44.5 -183t-125.5 -98q-24 -8 0 -16q32 -11 60.5 -25.5t71 -48.5t72.5 -76.5t52 -113t22 -154.5q0 -171 -105 -276q-72 -72 -152 -76q-66 -4 -89 45q104 -29 174 53.5 t70 259.5q0 69 -14.5 128t-32.5 94.5t-50 69.5t-51 47.5t-52.5 33.5t-37.5 23q-16 10 -23 18.5t-1 18t30 18.5q160 59 158 250q0 98 -65.5 165t-143.5 85q-37 7 -46.5 -3.5t-12.5 -54.5q-8 -225 -5 -502t10 -506.5t11 -244.5l-70 -4q14 42 -14 1286z" />
<glyph unicode="&#xe0;" horiz-adv-x="483" d="M0 246q0 52 11 109t33.5 114t66 94t100.5 37q53 0 80 -45v41h74q0 -5 -7.5 -51.5t-9.5 -110.5q-10 -152 -10 -239q0 -150 33 -150q8 0 15.5 2.5t14.5 9.5t13 12.5t13.5 17.5t12 19t12 22t11 21.5t11 22.5t9.5 21q6 12 11.5 28t8.5 23.5t5 7.5q3 0 5.5 -13.5t0.5 -19.5 q-9 -31 -14 -43q-28 -73 -65 -128.5t-77 -55.5q-28 0 -45.5 21t-22.5 45.5t-5 52.5q-48 -131 -127 -131q-45 0 -78 26.5t-49 69.5t-23.5 85.5t-7.5 84.5zM55 844l88 20q4 -14 24 -56.5t38 -77.5l18 -36h-57q-80 125 -111 150zM82 281q0 -244 86 -244q30 0 54.5 31.5t38 81 t20.5 100t8 98.5v119q2 39 -14 65.5t-52 26.5q-37 0 -65.5 -31t-44 -77t-23.5 -90.5t-8 -79.5z" />
<glyph unicode="&#xe1;" horiz-adv-x="483" d="M0 246q0 52 11 109t33.5 114t66 94t100.5 37q53 0 80 -45v41h74q0 -5 -7.5 -51.5t-9.5 -110.5q-10 -152 -10 -239q0 -150 33 -150q8 0 15.5 2.5t14.5 9.5t13 12.5t13.5 17.5t12 19t12 22t11 21.5t11 22.5t9.5 21q6 12 11.5 28t8.5 23.5t5 7.5q3 0 5.5 -13.5t0.5 -19.5 q-9 -31 -14 -43q-28 -73 -65 -128.5t-77 -55.5q-28 0 -45.5 21t-22.5 45.5t-5 52.5q-48 -131 -127 -131q-45 0 -78 26.5t-49 69.5t-23.5 85.5t-7.5 84.5zM82 281q0 -244 86 -244q30 0 54.5 31.5t38 81t20.5 100t8 98.5v119q2 39 -14 65.5t-52 26.5q-37 0 -65.5 -31t-44 -77 t-23.5 -90.5t-8 -79.5zM209 694q74 139 82 170l86 -20q-14 -11 -41 -48.5t-48 -69.5l-20 -32h-59z" />
<glyph unicode="&#xe2;" horiz-adv-x="483" d="M0 246q0 52 11 109t33.5 114t66 94t100.5 37q53 0 80 -45v41h74q0 -5 -7.5 -51.5t-9.5 -110.5q-10 -152 -10 -239q0 -150 33 -150q8 0 15.5 2.5t14.5 9.5t13 12.5t13.5 17.5t12 19t12 22t11 21.5t11 22.5t9.5 21q6 12 11.5 28t8.5 23.5t5 7.5q3 0 5.5 -13.5t0.5 -19.5 q-9 -31 -14 -43q-28 -73 -65 -128.5t-77 -55.5q-28 0 -45.5 21t-22.5 45.5t-5 52.5q-48 -131 -127 -131q-45 0 -78 26.5t-49 69.5t-23.5 85.5t-7.5 84.5zM82 281q0 -244 86 -244q30 0 54.5 31.5t38 81t20.5 100t8 98.5v119q2 39 -14 65.5t-52 26.5q-37 0 -65.5 -31t-44 -77 t-23.5 -90.5t-8 -79.5zM119 692q2 0 23 44t41 88l20 44h69l82 -176h-67q-4 13 -16.5 37.5t-22.5 42.5l-10 19q-42 -70 -50 -99h-69z" />
<glyph unicode="&#xe3;" horiz-adv-x="483" d="M0 246q0 52 11 109t33.5 114t66 94t100.5 37q53 0 80 -45v41h74q0 -5 -7.5 -51.5t-9.5 -110.5q-10 -152 -10 -239q0 -150 33 -150q8 0 15.5 2.5t14.5 9.5t13 12.5t13.5 17.5t12 19t12 22t11 21.5t11 22.5t9.5 21q6 12 11.5 28t8.5 23.5t5 7.5q3 0 5.5 -13.5t0.5 -19.5 q-9 -31 -14 -43q-28 -73 -65 -128.5t-77 -55.5q-28 0 -45.5 21t-22.5 45.5t-5 52.5q-48 -131 -127 -131q-45 0 -78 26.5t-49 69.5t-23.5 85.5t-7.5 84.5zM82 281q0 -244 86 -244q30 0 54.5 31.5t38 81t20.5 100t8 98.5v119q2 39 -14 65.5t-52 26.5q-37 0 -65.5 -31t-44 -77 t-23.5 -90.5t-8 -79.5zM84 743q44 17 82 17q24 -1 70.5 -14t72.5 -13q27 0 64 15v-58q-30 -15 -62 -12q-27 0 -76 11t-69 13q-50 0 -78 -20z" />
<glyph unicode="&#xe4;" horiz-adv-x="483" d="M0 246q0 52 11 109t33.5 114t66 94t100.5 37q53 0 80 -45v41h74q0 -5 -7.5 -51.5t-9.5 -110.5q-10 -152 -10 -239q0 -150 33 -150q8 0 15.5 2.5t14.5 9.5t13 12.5t13.5 17.5t12 19t12 22t11 21.5t11 22.5t9.5 21q6 12 11.5 28t8.5 23.5t5 7.5q3 0 5.5 -13.5t0.5 -19.5 q-9 -31 -14 -43q-28 -73 -65 -128.5t-77 -55.5q-28 0 -45.5 21t-22.5 45.5t-5 52.5q-48 -131 -127 -131q-45 0 -78 26.5t-49 69.5t-23.5 85.5t-7.5 84.5zM82 281q0 -244 86 -244q30 0 54.5 31.5t38 81t20.5 100t8 98.5v119q2 39 -14 65.5t-52 26.5q-37 0 -65.5 -31t-44 -77 t-23.5 -90.5t-8 -79.5zM100 758q0 22 14.5 42.5t35.5 20.5q22 0 35.5 -20t13.5 -43q0 -25 -15.5 -46.5t-38.5 -21.5t-34 21t-11 47zM254 758q0 22 14.5 42.5t34.5 20.5q22 0 35.5 -20t13.5 -43q0 -25 -15 -46.5t-38 -21.5t-34 21t-11 47z" />
<glyph unicode="&#xe5;" horiz-adv-x="483" d="M0 246q0 52 11 109t33.5 114t66 94t100.5 37q53 0 80 -45v41h74q0 -5 -7.5 -51.5t-9.5 -110.5q-10 -152 -10 -239q0 -150 33 -150q8 0 15.5 2.5t14.5 9.5t13 12.5t13.5 17.5t12 19t12 22t11 21.5t11 22.5t9.5 21q6 12 11.5 28t8.5 23.5t5 7.5q3 0 5.5 -13.5t0.5 -19.5 q-9 -31 -14 -43q-28 -73 -65 -128.5t-77 -55.5q-28 0 -45.5 21t-22.5 45.5t-5 52.5q-48 -131 -127 -131q-45 0 -78 26.5t-49 69.5t-23.5 85.5t-7.5 84.5zM82 281q0 -244 86 -244q30 0 54.5 31.5t38 81t20.5 100t8 98.5v119q2 39 -14 65.5t-52 26.5q-37 0 -65.5 -31t-44 -77 t-23.5 -90.5t-8 -79.5zM104 772q0 41 31 71.5t76 30.5q50 0 79 -29t29 -73q0 -41 -31 -72.5t-77 -31.5q-49 0 -78 29.5t-29 74.5zM162 774q0 -24 15 -40.5t34 -16.5q22 0 36.5 16t14.5 41q0 22 -14.5 36.5t-36.5 14.5t-35.5 -14.5t-13.5 -36.5z" />
<glyph unicode="&#xe6;" horiz-adv-x="610" d="M0 109q-4 50 13.5 101t57 87.5t91.5 36.5q73 0 98 -70q2 27 2 82v34q0 98 -8 136t-45 49q-36 11 -72.5 -29t-38.5 -69l-49 61q6 3 23 20t35 33t47.5 27.5t60.5 7.5q42 -6 70 -34t39 -68q58 119 143 119q32 0 47.5 -28t15.5 -64q0 -49 -15.5 -95.5t-47.5 -91t-59 -75.5 t-70 -74q25 -172 104 -172q47 0 97.5 59.5t70.5 100.5q4 8 7.5 18.5t6 17t5 12t4.5 8.5t4 3q1 0 2.5 -7t2 -14t-0.5 -12q-9 -31 -14 -43q-29 -68 -91.5 -133.5t-111.5 -65.5q-101 0 -139 150q-44 -143 -158 -143q-55 0 -88.5 35.5t-38.5 89.5zM74 106q2 -23 15 -48.5 t34 -28.5q24 -2 43.5 7t33 28t23.5 37.5t16.5 46.5t9.5 44t7 39q-35 45 -92 45q-51 0 -73.5 -48t-16.5 -122zM332 276q0 -17 4 -49q27 39 43 64t42 70.5t39 87.5t13 79q0 19 -7 38.5t-22 19.5q-32 0 -59.5 -68t-40 -137.5t-12.5 -104.5z" />
<glyph unicode="&#xe7;" horiz-adv-x="446" d="M-4 242q0 35 6.5 77.5t22.5 90.5t38.5 86.5t58.5 64t79 25.5q47 0 71.5 -49.5t24.5 -104.5q0 -23 -12 -29q-5 5 -11 39.5t-23 62t-52 27.5t-63 -35.5t-43 -86t-22.5 -96t-7.5 -76.5q0 -34 4.5 -65.5t16 -66.5t35.5 -56t59 -21q30 0 57 15.5t49 43t36 51t30 54.5 q4 8 7.5 18.5t6 17t5 12t4.5 8.5t4 3q1 0 2.5 -7t2 -14t-0.5 -12q-2 -7 -6 -21.5t-6 -21.5q-7 -19 -21.5 -45.5t-39.5 -61t-60.5 -59.5t-73.5 -28l-12 -27q24 5 43.5 -3.5t19.5 -33.5q0 -32 -34.5 -44.5t-81.5 5.5l12 17q15 -10 39 -4t24 22q0 30 -47 20l-4 3l21 45 q-44 3 -77 29t-49.5 66t-24 81t-7.5 84z" />
<glyph unicode="&#xe8;" horiz-adv-x="323" d="M0 262q0 46 11.5 105.5t33.5 121t62.5 103t91.5 41.5q33 0 48 -27.5t15 -64.5q0 -49 -15.5 -95.5t-47.5 -91t-59 -75.5t-70 -74q25 -172 102 -172q35 0 80.5 47.5t71.5 112.5q23 59 24 59q3 0 5.5 -13.5t0.5 -19.5q-8 -29 -16 -47q-78 -192 -178 -192q-44 0 -76.5 28.5 t-50 74t-25.5 91t-8 88.5zM55 844l88 20q4 -14 24 -56.5t38 -77.5l18 -36h-57q-80 125 -111 150zM66 276q0 -33 2 -49q137 190 137 301q0 19 -7 38.5t-22 19.5q-32 0 -59 -68t-39 -137.5t-12 -104.5z" />
<glyph unicode="&#xe9;" horiz-adv-x="323" d="M0 262q0 46 11.5 105.5t33.5 121t62.5 103t91.5 41.5q33 0 48 -27.5t15 -64.5q0 -49 -15.5 -95.5t-47.5 -91t-59 -75.5t-70 -74q25 -172 102 -172q35 0 80.5 47.5t71.5 112.5q23 59 24 59q3 0 5.5 -13.5t0.5 -19.5q-8 -29 -16 -47q-78 -192 -178 -192q-44 0 -76.5 28.5 t-50 74t-25.5 91t-8 88.5zM66 276q0 -33 2 -49q137 190 137 301q0 19 -7 38.5t-22 19.5q-32 0 -59 -68t-39 -137.5t-12 -104.5zM188 694q74 139 82 170l86 -20q-14 -11 -41 -48.5t-47 -69.5l-20 -32h-60z" />
<glyph unicode="&#xea;" horiz-adv-x="323" d="M0 262q0 46 11.5 105.5t33.5 121t62.5 103t91.5 41.5q33 0 48 -27.5t15 -64.5q0 -49 -15.5 -95.5t-47.5 -91t-59 -75.5t-70 -74q25 -172 102 -172q35 0 80.5 47.5t71.5 112.5q23 59 24 59q3 0 5.5 -13.5t0.5 -19.5q-8 -29 -16 -47q-78 -192 -178 -192q-44 0 -76.5 28.5 t-50 74t-25.5 91t-8 88.5zM66 276q0 -33 2 -49q137 190 137 301q0 19 -7 38.5t-22 19.5q-32 0 -59 -68t-39 -137.5t-12 -104.5zM88 692q2 0 23 44t41 88l20 44h70l82 -176h-68q-4 13 -16.5 37.5t-22.5 42.5l-10 19q-41 -70 -49 -99h-70z" />
<glyph unicode="&#xeb;" horiz-adv-x="323" d="M0 262q0 46 11.5 105.5t33.5 121t62.5 103t91.5 41.5q33 0 48 -27.5t15 -64.5q0 -49 -15.5 -95.5t-47.5 -91t-59 -75.5t-70 -74q25 -172 102 -172q35 0 80.5 47.5t71.5 112.5q23 59 24 59q3 0 5.5 -13.5t0.5 -19.5q-8 -29 -16 -47q-78 -192 -178 -192q-44 0 -76.5 28.5 t-50 74t-25.5 91t-8 88.5zM66 276q0 -33 2 -49q137 190 137 301q0 19 -7 38.5t-22 19.5q-32 0 -59 -68t-39 -137.5t-12 -104.5zM80 758q0 22 14.5 42.5t34.5 20.5q22 0 35.5 -20t13.5 -43q0 -25 -15 -46.5t-38 -21.5t-34 21t-11 47zM233 758q0 22 14.5 42.5t35.5 20.5 q22 0 35.5 -20t13.5 -43q0 -25 -15 -46.5t-38 -21.5t-34.5 21t-11.5 47z" />
<glyph unicode="&#xec;" horiz-adv-x="241" d="M-98 733l88 21q3 -14 23 -56.5t39 -77.5l18 -36h-60q-77 122 -108 149zM-0.5 181.5q-1.5 28.5 0.5 52.5v22q0 31 4 95.5t4 97.5q0 26 -4 38h82q-4 -8 -7 -25.5t-5 -43.5t-3 -52t-1 -58.5v-54v-48.5v-33q0 -5 -0.5 -23t0 -27.5t1.5 -26.5t4.5 -27t9.5 -20.5t16 -15.5 t24 -5q47 0 115 166q7 13 13 29t8.5 23t4.5 7q3 0 5.5 -13.5t0.5 -19.5q-2 -7 -7 -21.5t-7 -21.5q-71 -196 -143 -196q-28 0 -49.5 12t-33 32.5t-19.5 46.5t-10 54t-3.5 56.5z" />
<glyph unicode="&#xed;" horiz-adv-x="241" d="M-0.5 181.5q-1.5 28.5 0.5 52.5v22q0 31 4 95.5t4 97.5q0 26 -4 38h82q-4 -8 -7 -25.5t-5 -43.5t-3 -52t-1 -58.5v-54v-48.5v-33q0 -5 -0.5 -23t0 -27.5t1.5 -26.5t4.5 -27t9.5 -20.5t16 -15.5t24 -5q47 0 115 166q7 13 13 29t8.5 23t4.5 7q3 0 5.5 -13.5t0.5 -19.5 q-2 -7 -7 -21.5t-7 -21.5q-71 -196 -143 -196q-28 0 -49.5 12t-33 32.5t-19.5 46.5t-10 54t-3.5 56.5zM25 584q73 139 79 170l89 -21q-14 -12 -41.5 -49.5t-48.5 -68.5l-21 -31h-57z" />
<glyph unicode="&#xee;" horiz-adv-x="241" d="M-74 584l82 176h70l84 -176h-70q-4 13 -16 37t-22 41l-11 18q-39 -67 -49 -96h-68zM-0.5 181.5q-1.5 28.5 0.5 52.5v22q0 31 4 95.5t4 97.5q0 26 -4 38h82q-4 -8 -7 -25.5t-5 -43.5t-3 -52t-1 -58.5v-54v-48.5v-33q0 -5 -0.5 -23t0 -27.5t1.5 -26.5t4.5 -27t9.5 -20.5 t16 -15.5t24 -5q47 0 115 166q7 13 13 29t8.5 23t4.5 7q3 0 5.5 -13.5t0.5 -19.5q-2 -7 -7 -21.5t-7 -21.5q-71 -196 -143 -196q-28 0 -49.5 12t-33 32.5t-19.5 46.5t-10 54t-3.5 56.5z" />
<glyph unicode="&#xef;" horiz-adv-x="241" d="M-74 645q0 22 14.5 43t34.5 21q22 0 36 -20.5t14 -43.5q0 -25 -15.5 -46t-38.5 -21t-34 20.5t-11 46.5zM-0.5 181.5q-1.5 28.5 0.5 52.5v22q0 31 4 95.5t4 97.5q0 26 -4 38h82q-4 -8 -7 -25.5t-5 -43.5t-3 -52t-1 -58.5v-54v-48.5v-33q0 -5 -0.5 -23t0 -27.5t1.5 -26.5 t4.5 -27t9.5 -20.5t16 -15.5t24 -5q47 0 115 166q7 13 13 29t8.5 23t4.5 7q3 0 5.5 -13.5t0.5 -19.5q-2 -7 -7 -21.5t-7 -21.5q-71 -196 -143 -196q-28 0 -49.5 12t-33 32.5t-19.5 46.5t-10 54t-3.5 56.5zM80 645q0 22 14.5 43t34.5 21q22 0 35.5 -20.5t13.5 -43.5 q0 -25 -15 -46t-38 -21t-34 20.5t-11 46.5z" />
<glyph unicode="&#xf1;" horiz-adv-x="454" d="M-16 -33q28 110 28 277q0 4 0.5 69t0 96.5t-4 80.5t-10.5 77l80 -2l-2 -145q50 165 133 172q57 4 92 -32.5t35 -92.5q0 -45 -28.5 -174t-28.5 -178q0 -30 11.5 -59t37.5 -29q22 0 41.5 11.5t36.5 35t27 39.5t24 45t16 32q5 11 11.5 28.5t9.5 24.5t6 7q1 0 2.5 -6.5 t2 -13.5t-0.5 -13q-9 -27 -15 -41q-79 -190 -167 -190q-40 0 -66 25.5t-34.5 58t-8.5 71.5q0 43 24.5 163t24.5 165q0 28 -10.5 52t-36.5 24q-27 0 -52 -35t-41.5 -88t-26.5 -93.5t-15 -72.5q-5 -26 -7.5 -57t-1.5 -66.5t2 -59.5t3.5 -60.5t3.5 -45.5h-96zM43 702 q44 17 82 17q24 -1 70.5 -14t72.5 -13t64 15v-58q-30 -15 -62 -12q-27 0 -76 11.5t-69 13.5q-49 0 -78 -21z" />
<glyph unicode="&#xf2;" horiz-adv-x="454" d="M0 279q0 48 13.5 105t38.5 111t68 90t95 36q38 0 65 -26t37.5 -63t17.5 -77.5t5 -70.5t0 -41v-3q0 -125 -33 -227q20 -4 35 -4q72 0 111 84q7 13 13 29t8.5 23t4.5 7q3 0 4.5 -13.5t-0.5 -19.5q-2 -15 -14 -43q-5 -15 -13.5 -29.5t-24 -35t-40.5 -33t-55 -12.5 q-24 0 -45 6q-45 -98 -117 -101q-40 0 -71.5 22.5t-50 56t-31 76.5t-17 80.5t-4.5 72.5zM55 844l88 20q4 -14 24 -56.5t38 -77.5l18 -36h-57q-80 125 -111 150zM72 272q0 -30 6 -68t18 -79.5t37 -69.5t57 -28q48 0 78 55q-45 23 -71.5 79t-28.5 119t9 121.5t40.5 95.5 t67.5 33q-32 40 -72 37q-37 -1 -66 -35t-44.5 -84t-23 -96t-7.5 -80zM213.5 249q18.5 -92 73.5 -126q24 73 24 209q0 166 -37 166q-39 -1 -59 -79t-1.5 -170z" />
<glyph unicode="&#xf3;" horiz-adv-x="454" d="M0 279q0 48 13.5 105t38.5 111t68 90t95 36q38 0 65 -26t37.5 -63t17.5 -77.5t5 -70.5t0 -41v-3q0 -125 -33 -227q20 -4 35 -4q72 0 111 84q7 13 13 29t8.5 23t4.5 7q3 0 4.5 -13.5t-0.5 -19.5q-2 -15 -14 -43q-5 -15 -13.5 -29.5t-24 -35t-40.5 -33t-55 -12.5 q-24 0 -45 6q-45 -98 -117 -101q-40 0 -71.5 22.5t-50 56t-31 76.5t-17 80.5t-4.5 72.5zM72 272q0 -30 6 -68t18 -79.5t37 -69.5t57 -28q48 0 78 55q-45 23 -71.5 79t-28.5 119t9 121.5t40.5 95.5t67.5 33q-32 40 -72 37q-37 -1 -66 -35t-44.5 -84t-23 -96t-7.5 -80z M209 694q74 139 82 170l86 -20q-14 -11 -41 -48.5t-48 -69.5l-20 -32h-59zM213.5 249q18.5 -92 73.5 -126q24 73 24 209q0 166 -37 166q-39 -1 -59 -79t-1.5 -170z" />
<glyph unicode="&#xf4;" horiz-adv-x="454" d="M0 279q0 48 13.5 105t38.5 111t68 90t95 36q38 0 65 -26t37.5 -63t17.5 -77.5t5 -70.5t0 -41v-3q0 -125 -33 -227q20 -4 35 -4q72 0 111 84q7 13 13 29t8.5 23t4.5 7q3 0 4.5 -13.5t-0.5 -19.5q-2 -15 -14 -43q-5 -15 -13.5 -29.5t-24 -35t-40.5 -33t-55 -12.5 q-24 0 -45 6q-45 -98 -117 -101q-40 0 -71.5 22.5t-50 56t-31 76.5t-17 80.5t-4.5 72.5zM72 272q0 -30 6 -68t18 -79.5t37 -69.5t57 -28q48 0 78 55q-45 23 -71.5 79t-28.5 119t9 121.5t40.5 95.5t67.5 33q-32 40 -72 37q-37 -1 -66 -35t-44.5 -84t-23 -96t-7.5 -80zM88 692 q2 0 23 44t41 88l20 44h70l82 -176h-68q-4 13 -16.5 37.5t-22.5 42.5l-10 19q-41 -70 -49 -99h-70zM213.5 249q18.5 -92 73.5 -126q24 73 24 209q0 166 -37 166q-39 -1 -59 -79t-1.5 -170z" />
<glyph unicode="&#xf5;" horiz-adv-x="454" d="M0 279q0 48 13.5 105t38.5 111t68 90t95 36q38 0 65 -26t37.5 -63t17.5 -77.5t5 -70.5t0 -41v-3q0 -125 -33 -227q20 -4 35 -4q72 0 111 84q7 13 13 29t8.5 23t4.5 7q3 0 4.5 -13.5t-0.5 -19.5q-2 -15 -14 -43q-5 -15 -13.5 -29.5t-24 -35t-40.5 -33t-55 -12.5 q-24 0 -45 6q-45 -98 -117 -101q-40 0 -71.5 22.5t-50 56t-31 76.5t-17 80.5t-4.5 72.5zM63 743q44 17 82 17q24 -1 71 -14t73 -13q25 0 63 15v-58q-30 -15 -61 -12q-27 0 -76.5 11t-69.5 13q-49 0 -77 -20zM72 272q0 -30 6 -68t18 -79.5t37 -69.5t57 -28q48 0 78 55 q-45 23 -71.5 79t-28.5 119t9 121.5t40.5 95.5t67.5 33q-32 40 -72 37q-37 -1 -66 -35t-44.5 -84t-23 -96t-7.5 -80zM213.5 249q18.5 -92 73.5 -126q24 73 24 209q0 166 -37 166q-39 -1 -59 -79t-1.5 -170z" />
<glyph unicode="&#xf6;" horiz-adv-x="454" d="M0 279q0 48 13.5 105t38.5 111t68 90t95 36q38 0 65 -26t37.5 -63t17.5 -77.5t5 -70.5t0 -41v-3q0 -125 -33 -227q20 -4 35 -4q72 0 111 84q7 13 13 29t8.5 23t4.5 7q3 0 4.5 -13.5t-0.5 -19.5q-2 -15 -14 -43q-5 -15 -13.5 -29.5t-24 -35t-40.5 -33t-55 -12.5 q-24 0 -45 6q-45 -98 -117 -101q-40 0 -71.5 22.5t-50 56t-31 76.5t-17 80.5t-4.5 72.5zM72 272q0 -30 6 -68t18 -79.5t37 -69.5t57 -28q48 0 78 55q-45 23 -71.5 79t-28.5 119t9 121.5t40.5 95.5t67.5 33q-32 40 -72 37q-37 -1 -66 -35t-44.5 -84t-23 -96t-7.5 -80z M100 758q0 22 14.5 42.5t35.5 20.5q22 0 35.5 -20t13.5 -43q0 -25 -15.5 -46.5t-38.5 -21.5t-34 21t-11 47zM213.5 249q18.5 -92 73.5 -126q24 73 24 209q0 166 -37 166q-39 -1 -59 -79t-1.5 -170zM254 758q0 22 14.5 42.5t34.5 20.5q22 0 35.5 -20t13.5 -43 q0 -25 -15 -46.5t-38 -21.5t-34 21t-11 47z" />
<glyph unicode="&#xf7;" horiz-adv-x="561" d="M63 561v101q31 -2 80.5 -4t166 1.5t188.5 18.5v-111q-30 20 -211.5 16.5t-223.5 -22.5zM231 465q0 25 14.5 46t37.5 21q24 0 35.5 -20.5t11.5 -46.5q0 -22 -14.5 -43t-36.5 -21q-20 0 -34 21t-14 43zM231 772q0 25 14.5 46.5t37.5 21.5q24 0 35.5 -21t11.5 -47 q0 -22 -14.5 -42.5t-36.5 -20.5q-20 0 -34 20.5t-14 42.5z" />
<glyph unicode="&#xf8;" horiz-adv-x="393" d="M0 279q0 48 13.5 105t38.5 111t68 90t95 36q31 0 55 -17q5 16 11 36t10 33t6 21h63q-21 -46 -51 -135q50 -90 35 -272q-4 -45 -13 -90t-27 -101t-52 -90.5t-78 -34.5q-16 0 -43 9l-16 -56h-62l29 86q-43 45 -62.5 122t-19.5 147zM72 272q0 -100 37 -178q86 264 145 457 q-16 16 -41 16q-37 0 -66 -34t-44.5 -84t-23 -96t-7.5 -81zM150 41q18 -12 40 -12q43 0 74.5 53t43 127t7.5 155t-26 134q-44 -133 -139 -457z" />
<glyph unicode="&#xf9;" horiz-adv-x="440" d="M4 172q0 47 8 153t8 152q0 76 -2 115h82q-30 -93 -30 -356q0 -25 1.5 -51.5t6 -68t17 -67.5t30.5 -26q35 0 63 39t43 94.5t23 105.5t8 82q0 131 -8 215h86q-6 -20 -11 -45t-8 -58.5t-4.5 -57t-2.5 -66.5t-1 -58v-61.5v-48.5q0 -115 35 -101q34 13 90 132q6 12 12.5 27.5 t9.5 21.5t5 6q3 0 5 -12.5t-1 -18.5q0 -2 -12 -43q-69 -184 -119 -184q-25 1 -42.5 19t-24.5 45.5t-9.5 52t-1.5 49.5q-9 -36 -24.5 -74t-46 -72.5t-64.5 -34.5q-42 0 -71 35t-39.5 77t-10.5 83zM14 844l88 20q4 -14 24 -56.5t38 -77.5l18 -36h-57q-80 125 -111 150z" />
<glyph unicode="&#xfa;" horiz-adv-x="440" d="M4 172q0 47 8 153t8 152q0 76 -2 115h82q-30 -93 -30 -356q0 -25 1.5 -51.5t6 -68t17 -67.5t30.5 -26q35 0 63 39t43 94.5t23 105.5t8 82q0 131 -8 215h86q-6 -20 -11 -45t-8 -58.5t-4.5 -57t-2.5 -66.5t-1 -58v-61.5v-48.5q0 -115 35 -101q34 13 90 132q6 12 12.5 27.5 t9.5 21.5t5 6q3 0 5 -12.5t-1 -18.5q0 -2 -12 -43q-69 -184 -119 -184q-25 1 -42.5 19t-24.5 45.5t-9.5 52t-1.5 49.5q-9 -36 -24.5 -74t-46 -72.5t-64.5 -34.5q-42 0 -71 35t-39.5 77t-10.5 83zM199 694q74 139 82 170l86 -20q-14 -11 -41 -48.5t-48 -69.5l-20 -32h-59z " />
<glyph unicode="&#xfb;" horiz-adv-x="440" d="M4 172q0 47 8 153t8 152q0 76 -2 115h82q-30 -93 -30 -356q0 -25 1.5 -51.5t6 -68t17 -67.5t30.5 -26q35 0 63 39t43 94.5t23 105.5t8 82q0 131 -8 215h86q-6 -20 -11 -45t-8 -58.5t-4.5 -57t-2.5 -66.5t-1 -58v-61.5v-48.5q0 -115 35 -101q34 13 90 132q6 12 12.5 27.5 t9.5 21.5t5 6q3 0 5 -12.5t-1 -18.5q0 -2 -12 -43q-69 -184 -119 -184q-25 1 -42.5 19t-24.5 45.5t-9.5 52t-1.5 49.5q-9 -36 -24.5 -74t-46 -72.5t-64.5 -34.5q-42 0 -71 35t-39.5 77t-10.5 83zM68 692q2 0 23 44t41 88l20 44h69l82 -176h-67q-4 13 -16.5 37.5t-23.5 42.5 l-10 19q-41 -70 -49 -99h-69z" />
<glyph unicode="&#xfc;" horiz-adv-x="440" d="M4 172q0 47 8 153t8 152q0 76 -2 115h82q-30 -93 -30 -356q0 -25 1.5 -51.5t6 -68t17 -67.5t30.5 -26q35 0 63 39t43 94.5t23 105.5t8 82q0 131 -8 215h86q-6 -20 -11 -45t-8 -58.5t-4.5 -57t-2.5 -66.5t-1 -58v-61.5v-48.5q0 -115 35 -101q34 13 90 132q6 12 12.5 27.5 t9.5 21.5t5 6q3 0 5 -12.5t-1 -18.5q0 -2 -12 -43q-69 -184 -119 -184q-25 1 -42.5 19t-24.5 45.5t-9.5 52t-1.5 49.5q-9 -36 -24.5 -74t-46 -72.5t-64.5 -34.5q-42 0 -71 35t-39.5 77t-10.5 83zM70 737q0 22 14.5 43t34.5 21q22 0 35.5 -20.5t13.5 -43.5q0 -25 -15 -46 t-38 -21t-34 20.5t-11 46.5zM223 737q0 22 14.5 43t34.5 21q22 0 36 -20.5t14 -43.5q0 -25 -15.5 -46t-38.5 -21t-34 20.5t-11 46.5z" />
<glyph unicode="&#xfd;" horiz-adv-x="393" d="M2 502h78q-23 -95 -23 -228q0 -217 58 -217q36 0 82.5 146t46.5 211q0 102 -4 131h75q-17 -127 -6 -455v-51q66 112 82 154q21 59 25 59q3 0 5.5 -13.5t0.5 -19.5q-3 -22 -12 -43q-8 -20 -22.5 -50t-38.5 -76.5t-38 -76.5q1 -54 1.5 -142.5t1 -153.5t1.5 -87 q0 -47 -1.5 -86.5t-5.5 -86.5t-12 -82t-19.5 -65t-30.5 -45t-43 -13q-38 4 -59 75.5t-20 165t15 187.5q22 138 119 309q-7 267 -14 299q-7 -33 -17.5 -70t-28.5 -91t-41.5 -89t-47.5 -35q-19 0 -34 11t-25.5 33.5t-18.5 45.5t-12.5 59t-7.5 61t-4 64.5t-1.5 56.5t0.5 50v33 q0 43 -4 125zM137 594q74 139 80 170l88 -21q-14 -12 -41.5 -49.5t-47.5 -68.5l-21 -31h-58zM172.5 -558q3.5 -61 14 -99.5t20.5 -38.5q15 0 24.5 21.5t17 92.5t9.5 197q0 6 1.5 99t0.5 151q-72 -172 -84 -287q-7 -75 -3.5 -136z" />
<glyph unicode="&#xff;" horiz-adv-x="393" d="M2 502h78q-23 -95 -23 -228q0 -217 58 -217q36 0 82.5 146t46.5 211q0 102 -4 131h75q-17 -127 -6 -455v-51q66 112 82 154q21 59 25 59q3 0 5.5 -13.5t0.5 -19.5q-3 -22 -12 -43q-8 -20 -22.5 -50t-38.5 -76.5t-38 -76.5q1 -54 1.5 -142.5t1 -153.5t1.5 -87 q0 -47 -1.5 -86.5t-5.5 -86.5t-12 -82t-19.5 -65t-30.5 -45t-43 -13q-38 4 -59 75.5t-20 165t15 187.5q22 138 119 309q-7 267 -14 299q-7 -33 -17.5 -70t-28.5 -91t-41.5 -89t-47.5 -35q-19 0 -34 11t-25.5 33.5t-18.5 45.5t-12.5 59t-7.5 61t-4 64.5t-1.5 56.5t0.5 50v33 q0 43 -4 125zM29 676q0 22 14.5 42.5t34.5 20.5q22 0 35.5 -20t13.5 -43q0 -25 -15 -46.5t-38 -21.5t-34 21t-11 47zM172.5 -558q3.5 -61 14 -99.5t20.5 -38.5q15 0 24.5 21.5t17 92.5t9.5 197q0 6 1.5 99t0.5 151q-72 -172 -84 -287q-7 -75 -3.5 -136zM182 676 q0 22 14.5 42.5t34.5 20.5q22 0 36 -20.5t14 -42.5q0 -25 -15.5 -46.5t-38.5 -21.5t-34 21t-11 47z" />
<glyph unicode="&#x152;" horiz-adv-x="1107" d="M61 672q10 170 43.5 313.5t79 232.5t97.5 137t100 44q60 -6 104 -47t58 -103q36 48 91 81t108 46t101 19t77 5l30 -1l2 -70q-63 10 -128.5 -1.5t-121 -42.5t-93 -85.5t-42.5 -124.5q-5 -58 8.5 -108t40.5 -86.5t54.5 -61t60.5 -43.5q16 -10 21 -13t14 -9.5t10 -7.5 t4 -6.5t1 -7t-5 -7t-7 -9t-12 -11.5t-14 -15t-31.5 -33t-39 -41t-36 -50t-36 -68.5t-25.5 -86t-16 -112.5q-5 -71 15 -127t55.5 -87t76 -47t80.5 -15q67 2 116 33.5t71 76.5t30.5 90t2.5 82q29 -21 38 -62t-4.5 -88t-43.5 -89.5t-84.5 -70t-120.5 -26.5q-52 0 -102 14.5 t-101 57.5t-76 109q-41 -103 -98.5 -149t-118.5 -40q-82 9 -139.5 105t-81.5 254t-13 352zM140.5 434q7.5 -113 26 -201.5t57.5 -142t93 -53.5q56 0 97 57t61 149.5t31.5 195t12 208t-1.5 173t-5 104.5q-2 20 -5 56.5t-5 60t-6 58t-9.5 57.5t-13 50.5t-18.5 45.5t-25 34 t-33.5 23.5t-42.5 7.5q-57 0 -104 -96.5t-74 -242t-35 -312.5q-8 -119 -0.5 -232zM582 819q5 -123 2 -248q46 65 90 113q5 5 13 14q19 21 18 26.5t-29 20.5q-8 5 -12 7q-47 29 -82 67z" />
<glyph unicode="&#x153;" horiz-adv-x="657" d="M0 279q0 48 13.5 105t38.5 111t68 90t95 36q50 0 85.5 -40t53.5 -106q58 158 160 158q32 0 48 -28t16 -64q0 -49 -15.5 -95.5t-48 -91.5t-59.5 -75.5t-70 -73.5q25 -172 104 -172q47 0 97.5 59.5t70.5 100.5q4 8 7.5 18.5t6 17t5 12t4.5 8.5t4 3q1 0 2.5 -7t2 -14 t-0.5 -12q-9 -31 -14 -43q-29 -68 -91.5 -133.5t-111.5 -65.5q-99 0 -137 144q-64 -155 -160 -150q-49 3 -85.5 36t-54.5 83t-26 97.5t-8 91.5zM72 272q0 -30 6 -67.5t18 -79t37 -69t57 -27.5q54 0 87 74.5t38 179.5v4q6 113 -20.5 196.5t-81.5 83.5q-37 0 -66 -34 t-44.5 -84t-23 -96t-7.5 -81zM379 276q0 -7 1 -24t1 -25q139 193 139 301q0 20 -6.5 39t-21.5 19q-32 0 -59.5 -68t-40.5 -138t-13 -104z" />
<glyph unicode="&#x178;" horiz-adv-x="632" d="M24 671q-3 163 3 295.5t7.5 257.5t-7.5 152h104q-34 -127 -34 -391.5t38 -527.5q14 -90 53.5 -135t86 -43t92 33.5t73.5 84.5q0 924 -4 975l86 -6q-20 -55 -20 -1061q93 55 196 55q-107 -26 -196 -112q0 -11 -0.5 -21.5t-1 -16.5t-0.5 -7q-28 -359 -71 -534t-107 -175 q-52 0 -89.5 76t-31.5 194q6 144 70 278.5t167 219.5v76q-25 -37 -67.5 -67t-92.5 -42t-97 -3.5t-84.5 54.5t-51.5 126q-18 102 -21 265zM143 1522q0 23 15 44t37 21t35.5 -20.5t13.5 -44.5q0 -25 -15 -45.5t-39 -20.5q-23 0 -35 20.5t-12 45.5zM268 -209 q-10 -80 8.5 -146.5t51.5 -78.5q18 -6 37 54t38 204.5t31 351.5q-67 -84 -110.5 -186.5t-55.5 -198.5zM297 1522q0 24 14.5 44.5t36.5 20.5t35.5 -20.5t13.5 -44.5q0 -25 -15 -45.5t-38 -20.5t-35 20.5t-12 45.5z" />
<glyph unicode="&#x2000;" horiz-adv-x="831" />
<glyph unicode="&#x2001;" horiz-adv-x="1663" />
<glyph unicode="&#x2002;" horiz-adv-x="831" />
<glyph unicode="&#x2003;" horiz-adv-x="1663" />
<glyph unicode="&#x2004;" horiz-adv-x="554" />
<glyph unicode="&#x2005;" horiz-adv-x="415" />
<glyph unicode="&#x2006;" horiz-adv-x="277" />
<glyph unicode="&#x2007;" horiz-adv-x="277" />
<glyph unicode="&#x2008;" horiz-adv-x="207" />
<glyph unicode="&#x2009;" horiz-adv-x="332" />
<glyph unicode="&#x200a;" horiz-adv-x="92" />
<glyph unicode="&#x2010;" horiz-adv-x="536" d="M72 547v92q248 -17 391 12v-98q-27 19 -189.5 16t-201.5 -22z" />
<glyph unicode="&#x2011;" horiz-adv-x="536" d="M72 547v92q248 -17 391 12v-98q-27 19 -189.5 16t-201.5 -22z" />
<glyph unicode="&#x2012;" horiz-adv-x="536" d="M72 547v92q248 -17 391 12v-98q-27 19 -189.5 16t-201.5 -22z" />
<glyph unicode="&#x2013;" horiz-adv-x="1169" d="M72 547v92q649 -17 1024 12v-98q-71 19 -496.5 16t-527.5 -22z" />
<glyph unicode="&#x2014;" horiz-adv-x="2193" d="M72 547v92q1299 -17 2048 12v-98q-141 19 -992.5 16t-1055.5 -22z" />
<glyph unicode="&#x2018;" horiz-adv-x="141" d="M20 1335q0 23 4.5 46.5t25 49t54.5 25.5l2 -24q-7 -3 -11.5 -7t-7 -9.5t-3.5 -9t-2 -11t-2 -11.5q12 2 25.5 -14.5t13.5 -44.5q0 -26 -15.5 -44.5t-35.5 -18.5t-34 25t-14 48z" />
<glyph unicode="&#x2019;" horiz-adv-x="149" d="M20 1391q0 26 16.5 45.5t35.5 19.5q21 0 34 -25.5t13 -50.5q0 -21 -4.5 -44.5t-25 -48.5t-54.5 -25l-2 24q10 4 15 9t6.5 9t3.5 14l3 15q-12 -4 -26.5 13t-14.5 45z" />
<glyph unicode="&#x201c;" horiz-adv-x="276" d="M20 1335q0 23 4.5 46.5t25 49t54.5 25.5l2 -24q-7 -3 -11.5 -7t-7 -9.5t-3.5 -9t-2 -11t-2 -11.5q12 2 25.5 -14.5t13.5 -44.5q0 -26 -15.5 -44.5t-35.5 -18.5t-34 25t-14 48zM147 1335q0 23 4.5 46.5t25 49t54.5 25.5l2 -24q-7 -3 -11.5 -7t-7 -9.5t-3.5 -9t-2 -11 t-2 -11.5q11 2 25 -14.5t14 -44.5q0 -26 -16 -44.5t-35 -18.5q-20 0 -34 25t-14 48z" />
<glyph unicode="&#x201d;" horiz-adv-x="276" d="M20 1391q0 26 16.5 45.5t35.5 19.5q21 0 34 -25.5t13 -50.5q0 -21 -4.5 -44.5t-25 -48.5t-54.5 -25l-2 24q10 4 15 9t6.5 9t3.5 14l3 15q-12 -4 -26.5 13t-14.5 45zM147 1391q0 26 16.5 45.5t35.5 19.5q20 0 33.5 -26t13.5 -50q0 -21 -4.5 -44.5t-25 -48.5t-54.5 -25 l-2 24q10 4 15 9t6.5 9t3.5 14l3 15q-12 -4 -26.5 13t-14.5 45z" />
<glyph unicode="&#x2022;" horiz-adv-x="204" d="M27 401q0 34 23 59t59 25q34 0 55.5 -25t21.5 -59q0 -37 -22.5 -61.5t-61.5 -24.5q-38 0 -56.5 25t-18.5 61z" />
<glyph unicode="&#x2026;" horiz-adv-x="391" />
<glyph unicode="&#x202f;" horiz-adv-x="332" />
<glyph unicode="&#x205f;" horiz-adv-x="415" />
<glyph unicode="&#x20ac;" horiz-adv-x="718" d="M45 682l14 109q70 -7 158 -9q6 113 24 218t49 198t82 149.5t115 57.5q38 0 67 -14.5t56 -51.5t41 -112.5t13 -184.5h-46q2 40 -12.5 109t-48.5 131t-74 61q-45 -1 -80.5 -52t-56 -135.5t-32 -179t-13.5 -196.5q217 0 270 31l-12 -88q-30 15 -258 -4v-39q0 -30 4 -92 q213 -4 268 28l-12 -88q-30 15 -250 -4q14 -122 40.5 -229.5t65.5 -181.5t81 -74q41 0 70.5 32.5t41 78.5t16 94t-4.5 80h55q-1 -8 -2 -43.5t-3 -69.5t-13.5 -77t-30.5 -74.5t-58 -53.5t-92 -22q-51 0 -95 46t-74.5 124t-52 169.5t-32.5 192.5q-137 -13 -176 -27l14 107 q70 -4 158 -8q-4 70 -4 96v27q-142 -18 -170 -29z" />
<glyph unicode="&#x25fc;" horiz-adv-x="593" d="M0 0v594h594v-594h-594z" />
</font>
</defs>
</svg>
